<?xml version="1.0" encoding="UTF-8"?>
<svg id="Calque_1" data-name="Calque 1" xmlns="http://www.w3.org/2000/svg" viewBox="0 0 59.07 40.11">
  <defs>
    <style>
      .cls-1 {
        fill: #fff;
      }

      .cls-2 {
        opacity: .8;
      }
    </style>
  </defs>
  <g class="cls-2">
    <path class="cls-1" d="M22.64,32.55c-3.66-3.61-3.7-9.52-.1-13.18l7.05-7.16,7.07,6.96c3.66,3.61,3.71,9.52,.1,13.18l-7.05,7.16-7.07-6.96Zm3.02-3.06l4.01,3.95,4.03-4.09c1.94-1.97,1.92-5.16-.05-7.1l-4.01-3.95-4.03,4.09c-1.94,1.97-1.92,5.15,.05,7.1Z"/>
    <path class="cls-1" d="M51.49,3.27c-3.66-3.61-9.57-3.56-13.18,.1l-7.05,7.16,7.07,6.96c3.66,3.61,9.57,3.56,13.18-.1l7.05-7.16-7.07-6.96Zm-3.02,3.06l4.01,3.95-4.03,4.09c-1.94,1.97-5.13,1.99-7.1,.05l-4.01-3.95,4.03-4.09c1.94-1.97,5.13-2,7.1-.05Z"/>
    <path class="cls-1" d="M7.59,17.72c3.66,3.61,9.57,3.56,13.18-.1l7.05-7.16-7.07-6.96C17.08-.11,11.17-.06,7.56,3.6L.51,10.75l7.07,6.96Zm3.02-3.06l-4.01-3.95,4.03-4.09c1.94-1.97,5.13-1.99,7.1-.05l4.01,3.95-4.03,4.09c-1.94,1.97-5.13,2-7.1,.05Z"/>
  </g>
</svg>