<?xml version="1.0" encoding="UTF-8"?>
<svg id="Calque_1" data-name="Calque 1" xmlns="http://www.w3.org/2000/svg" viewBox="0 0 216.16 216.8">
  <defs>
    <style>
      .cls-1 {
        fill: #fff;
      }

      .cls-2 {
        fill: #ff476b;
      }
    </style>
  </defs>
  <path class="cls-2" d="M146.72,119.03c1.91-.42,3.43,.91,4.95,2.46,5.36,5.44,10.78,10.81,16.28,16.3-1.79,1.6-3.47,3.11-5.39,4.83-1.81-1.84-3.93-4-6.06-6.14-3.03-3.05-6.05-6.12-9.16-9.1-.62-.59-1.61-1.12-2.44-1.13-10.38-.08-20.77-.05-31.16-.04-.35,0-.7,.07-1.06,.11,1.13,7.58,8.38,13.78,16.45,14.08,2.37,.09,4.75,.01,7.12,.04,2.98,.03,4.2,1.2,4.36,4.11,.74,13.79,10.55,23.56,24.36,24.41,1.2,.07,2.69,.67,3.48,1.54,11.69,12.73,23.29,25.54,34.91,38.33,.1,.11,.15,.25,.32,.54-1.66,1.5-3.35,3.02-5.18,4.66-3.49-3.83-6.88-7.55-10.26-11.27-7.73-8.51-15.44-17.03-23.23-25.5-.62-.68-1.68-1.19-2.6-1.31-9.37-1.2-16.96-5.44-22.73-12.96-.48-.63-1.54-1.1-2.35-1.14-2.81-.14-5.64-.05-8.45-.06-4.9,0-9.14-1.71-12.65-5.12-1.32-1.28-2.47-2.74-3.23-3.6-2.62,.84-4.51,1.6-6.47,2.04-4.77,1.06-9.58,1.97-14.37,2.92-3.44,.68-5.39-1.34-4.8-4.81,.19-1.13,.03-2.32,.03-3.49-.96,.66-2.03,1.21-2.86,2.01-2.88,2.78-5.67,5.66-8.52,8.47-2.21,2.17-3.94,2.17-6.14,0-3.69-3.65-7.32-7.37-11.05-10.98-.51-.5-1.6-.91-2.22-.72-4.38,1.38-8.79,2.71-13.02,4.47-9.42,3.92-16.6,10.47-21.69,19.31-.36,.63-.72,1.27-1.18,2.08-2.1-1.05-4.11-2.06-6.29-3.15,3.32-6.74,7.82-12.24,13.36-16.94,6.4-5.44,13.9-8.74,21.87-11.02,6.47-1.85,12.36-4.93,18.34-7.87,1.11-.55,1.46-1.21,1.42-2.41-.09-2.52,.04-5.05-.07-7.56-.03-.67-.44-1.6-.98-1.94-9.41-6-15.67-14.32-18.79-25.03-.06-.21-.21-.39-.4-.74-2.07,0-4.21,.03-6.35,0-7.15-.1-12.51-5.42-12.6-12.54-.05-3.63,.14-7.28-.05-10.9-.3-5.86,.99-10.91,6.35-14.13-6.52-9.57-.57-25.4,9.6-32.2,7.26-4.86,15.25-5.98,23.62-4.46,2.67,.48,5.13,2.07,7.84,3.21,.15-.34,.4-.93,.68-1.51,3.89-8.2,10.37-12.52,19.43-12.91,8.32-.36,16.49,.37,23.97,4.42,14.14,7.65,21.7,19.54,22.43,35.62,.1,2.23-.59,4.49-.94,6.97,3.83,1.65,6.78,4.49,7.8,9.25-2.06,.42-3.92,.86-5.81,1.14-.43,.06-1.12-.28-1.38-.65-2.06-2.89-3.93-3.83-6.4-3.1-2.53,.75-3.71,2.58-3.89,6.02-.01,.21-.07,.42-.13,.75h-7.18c.32-2.37,.63-4.6,.96-7h-8.36c-6.16,0-12.32-.15-18.47,.04-7.67,.24-14.14-2.08-19.25-8.21-.44,.48-.83,.86-1.18,1.29-3.63,4.48-8.32,6.8-14.09,6.87-3.78,.05-7.56,0-11.41,0,.33,2.33,.64,4.55,.98,6.96h-7.25c-.04-.69-.05-1.41-.13-2.11-.33-2.84-2.68-4.92-5.45-4.83-2.68,.08-5.04,2.16-5.11,4.91-.13,5.04-.13,10.09,0,15.13,.07,2.49,2.07,4.51,4.53,4.75,1.96,.19,3.96,.04,6.07,.04v-6.91h6.97c-.03,20.09,9.45,33.02,29.19,38.68-.36,2.05-.74,4.26-1.18,6.77-2.22-.54-4.26-1.03-6.48-1.57,0,2.23-.03,4.3,.03,6.37,.01,.45,.23,1.09,.56,1.29,4.01,2.48,8.07,4.89,12.76,7.71-.77-8.44,5.81-11.83,9.65-16.24-1.37-2.54-2.94-4.7-3.73-7.11-.9-2.75,.49-5.33,1.76-7.81,2.53-4.94,4.96-9.94,7.48-14.9,3.23-6.38,8.98-9.28,15.99-8.03,3.94,.7,7.87,1.45,11.77,2.34,1.42,.33,2.28,.02,3.29-.99,11.14-11.21,22.31-22.38,33.5-33.53,5.08-5.06,11.84-5.98,17.44-2.47,7.4,4.64,8.6,14.7,2.42,21.17-3.94,4.13-8.06,8.1-12.1,12.14-6.03,6.03-12.06,12.05-18.13,18.11,16.78,21.78,35.07,42.04,55.24,60.65-.64,.71-.97,1.1-1.32,1.47-1.17,1.24-2.34,2.47-3.54,3.72-20.33-18.63-38.51-38.89-55.03-60.19-2.81,2.82-5.42,5.44-7.83,7.86Zm-32.34-60.5c5.48,0,10.97,.02,16.45,0,4.18-.02,6.39-2.18,6.16-6.34-.7-12.84-6.69-22.47-17.89-28.81-6.64-3.76-13.91-4.22-21.33-4.01-7.89,.23-14,6.3-14.12,14.22-.05,3.41-.03,6.82,0,10.23,.06,8.59,6.14,14.67,14.73,14.72,5.34,.03,10.67,0,16.01,0Zm-57.23,0h0c2.96,0,5.93,.06,8.89-.02,5.74-.16,10.25-4.62,10.44-10.34,.09-2.59,.08-5.19,0-7.78-.16-4.89-3.45-9.02-8.28-9.96-2.36-.46-4.87-.42-7.29-.3-10.78,.56-19.65,9.69-19.97,20.44-.14,4.76,2.82,7.9,7.54,7.95,2.89,.03,5.78,0,8.67,0Zm97.87,23.48c-12.3,12.31-24.67,24.68-37.03,37.05,4.96,0,10.11-.05,15.27,.03,1.59,.03,2.73-.39,3.88-1.56,8.43-8.53,16.94-16.99,25.42-25.48,.46-.46,.87-.96,1.21-1.34-3.04-3.02-5.96-5.94-8.74-8.71Zm-26.57,15.47c-3.06-.6-5.66-1.13-8.27-1.62-4.29-.8-6.92,.47-8.89,4.37-2.63,5.21-5.22,10.45-7.84,15.67-.66,1.31-1.3,2.65,.2,3.76,1.6,1.19,2.71,.12,3.81-.98,6.48-6.5,12.98-12.98,19.46-19.48,.45-.45,.85-.95,1.53-1.72Zm-15.69,43.96c-2.38-3.68-4.7-7.26-7.09-10.95-2.09,2.12-4.33,4.37-6.55,6.64-.56,.58-1.37,1.15-1.53,1.84-.83,3.57-1.48,7.17-2.21,10.86,7.19-.56,13.72-1.85,17.37-8.39Zm67.14-66.77c1.65-1.66,3.36-3.2,4.84-4.92,2.14-2.51,1.97-6.12-.23-8.51-2.1-2.28-5.76-2.85-8.27-.94-2.02,1.54-3.73,3.48-5.51,5.18,3.14,3.15,6.06,6.07,9.17,9.19Zm-62.38,72.75c4.15,6.65,10.28,8.28,17.56,6.97-.5-2.16-1.02-4.44-1.44-6.26-4.18-.7-8.17-1.05-11.96-2.12-2.16-.61-3.26-.23-4.16,1.4Zm51.46-62.61c1.69-1.63,3.52-3.39,5.01-4.83-2.85-2.87-5.8-5.85-8.53-8.59-1.62,1.57-3.41,3.31-5.04,4.89,2.89,2.88,5.86,5.84,8.56,8.53Zm-88.65,60.64c-2.25-1.35-4.39-2.67-6.57-3.91-.44-.25-1.17-.44-1.58-.25-2.45,1.13-4.84,2.37-6.83,3.37,2.72,2.71,5.36,5.34,7.87,7.84,2.18-2.16,4.59-4.55,7.11-7.06Z"/>
  <path class="cls-1" d="M179.78,44.22h-7.1V8.81H9.03V207.94H172.58v-6.81h7.15c0,3.66,.11,7.34-.05,11.01-.07,1.73-1.35,2.77-3.07,3.02-.8,.12-1.63,.05-2.44,.05-55.63,0-111.26,0-166.89,0-4.68,0-5.55-.87-5.55-5.58,0-67.49,0-134.98,0-202.48,0-4.73,.86-5.6,5.53-5.6,55.7,0,111.41,0,167.11,0,4.51,0,5.42,.92,5.42,5.49,0,12.31,0,24.61,0,37.16Z"/>
  <path class="cls-2" d="M87.06,72.75c.39-5.58,1.1-6.96,3.52-7.07,2.49-.12,3.25,1.21,3.92,6.95,4.68,.5,9.39,.87,14.07,1.53,3.66,.52,7.29,1.31,10.9,2.12,2.52,.57,3.76,2.42,3.22,4.45-.55,2.07-2.39,2.88-4.96,2.44-7.65-1.29-15.32-2.49-23.41-3.8,0,1.49,0,2.28,0,3.06,0,7.34,.02,14.69-.02,22.03-.01,2.41-1.52,3.96-3.61,3.93-2.01-.04-3.39-1.54-3.5-3.82-.02-.52,0-1.04,0-1.56,0-6.82,0-13.65,0-20.47,0-.8,0-1.59,0-3.07-7.5,1.14-14.65,2.23-21.8,3.33-.66,.1-1.3,.32-1.95,.45-2.3,.48-4.18-.59-4.65-2.62-.44-1.92,.71-3.84,2.93-4.24,6.34-1.14,12.7-2.16,19.06-3.13,2.03-.31,4.11-.33,6.28-.49Z"/>
</svg>