<?xml version="1.0" encoding="UTF-8"?>
<svg id="Calque_1" data-name="Calque 1" xmlns="http://www.w3.org/2000/svg" viewBox="0 0 225.09 216.8">
  <defs>
    <style>
      .cls-1 {
        fill: #fff;
      }

      .cls-2 {
        fill: #ff476b;
      }
    </style>
  </defs>
  <path class="cls-1" d="M57.53,71.15c2.97,.34,5.94,.97,8.91,.98,19.88,.09,39.77,.05,59.65,.05,29.53,0,59.07,0,88.6,0,6.53,0,9.31,2.76,9.31,9.21,0,24.81,0,49.62,0,74.44,0,.58,.03,1.16-.01,1.74-.14,1.99-1.52,3.38-3.3,3.35-1.78-.02-3.1-1.42-3.22-3.43-.03-.58-.01-1.16-.01-1.74,0-13.06,0-26.12,0-39.18v-2.55H7.59c0,3.97,0,7.94,0,11.91,0,.8,.09,1.62-.07,2.39-.36,1.79-1.47,2.81-3.36,2.74-1.78-.07-2.76-1.14-3.07-2.82-.11-.56-.05-1.16-.05-1.74,0-22.42-.02-44.84,.04-67.25,0-1.68,.66-3.36,.95-5.05,.13-.76,.23-1.56,.12-2.31-.26-1.86-.67-3.71-.99-5.56-.74-4.39,1.78-8.17,6.2-8.97,14.55-2.64,29.11-5.18,43.67-7.76,28.62-5.06,57.24-10.12,85.86-15.17,24.48-4.32,48.97-8.62,73.45-12.92,4.32-.76,8.09,1.6,8.92,5.93,1.67,8.68,3.22,17.38,4.64,26.11,.69,4.27-2.24,7.78-6.78,8.59-6.78,1.2-13.57,2.37-20.35,3.57-27.62,4.89-55.24,9.79-82.86,14.66-18.49,3.26-36.98,6.49-55.46,9.73-.27,.05-.54,.16-.81,.24l-.14,.82Zm14.54,7.57c-2.41,0-4.48,.04-6.55,0-10.42-.21-18.72-4.49-24.77-13.01-1.68-2.36-3.29-4.78-4.81-7.24-.74-1.19-1.6-1.63-3-1.62-7.47,.06-14.94,.03-22.4,.03q-2.93,0-2.93,2.86c0,15.08,0,30.16,0,45.24,0,.7,.06,1.4,.1,2.16,.5,.05,.85,.13,1.2,.13,15.15,0,30.31,.03,45.46-.06,.81,0,1.94-.85,2.38-1.62,4.45-7.63,8.79-15.33,13.16-23.01,.67-1.18,1.32-2.36,2.16-3.86ZM8.68,50.33c.85,0,1.63,0,2.42,0,6.89,0,13.78,.2,20.66-.07,4.65-.18,7.9,1.39,10.23,5.44,1.65,2.88,3.67,5.56,5.69,8.2,.47,.61,1.68,1.03,2.49,.94,2.8-.31,5.58-.87,8.36-1.36,5.17-.91,10.33-1.84,15.78-2.82-.65-.83-1.08-1.4-1.53-1.94-5.82-7.03-11.7-14.02-17.43-21.13-1.19-1.48-2.32-1.75-4.06-1.43-12.68,2.32-25.36,4.56-38.05,6.81q-6.08,1.08-4.56,7.37ZM180.53,13.43c6.86,8.28,13.4,16.21,20,24.1,.33,.39,1.14,.65,1.66,.57,4.57-.75,9.13-1.63,13.7-2.4,1.49-.25,1.66-1.03,1.42-2.31-1.42-7.84-2.82-15.68-4.16-23.53-.26-1.53-.78-2.1-2.45-1.77-5.62,1.08-11.26,2.02-16.9,3.01-4.27,.75-8.54,1.5-13.27,2.34ZM102.86,78.88c-.47-.07-.73-.14-1-.14-6.96,0-13.92-.05-20.88,.06-.75,.01-1.77,.82-2.19,1.54-4.8,8.27-9.5,16.59-14.22,24.9-.31,.54-.57,1.11-.96,1.89,.86,.06,1.48,.15,2.11,.15,6.38,.01,12.76-.04,19.14,.04,1.43,.02,2.19-.46,2.89-1.69,4.71-8.4,9.51-16.75,14.28-25.12,.28-.48,.51-.99,.83-1.63Zm-8.31,28.18c.52,.1,.85,.21,1.19,.21,6.89,.01,13.78,.06,20.66-.06,.75-.01,1.75-.87,2.18-1.6,4.12-7.07,8.15-14.19,12.2-21.31,.99-1.74,1.97-3.49,3.07-5.44-.53-.07-.79-.13-1.05-.14-6.96,0-13.92-.05-20.88,.06-.76,.01-1.79,.8-2.2,1.52-4.8,8.27-9.5,16.59-14.23,24.9-.31,.55-.58,1.12-.95,1.84Zm30.69,.22c7.88,0,15.19,.04,22.49-.07,.61,0,1.39-.9,1.77-1.57,4.85-8.41,9.63-16.85,14.43-25.28,.26-.46,.43-.96,.72-1.62-7.51,0-14.76-.04-22.01,.07-.69,.01-1.61,.82-2,1.5-4.36,7.52-8.63,15.08-12.93,22.64-.74,1.31-1.49,2.61-2.48,4.34Zm30.99-.12c1.07,.06,1.7,.12,2.34,.12,6.31,0,12.62-.04,18.92,.04,1.49,.02,2.32-.45,3.06-1.77,4.67-8.34,9.44-16.62,14.17-24.93,.31-.54,.54-1.12,.9-1.89-5.25,0-10.24-.01-15.24,0-2.61,0-5.73-.82-7.68,.34-2.02,1.2-2.93,4.3-4.26,6.61-4.03,7.03-8.02,14.08-12.22,21.47Zm31.07-.05h30.17c0-9.02,0-17.86,0-26.7,0-1.38-.75-1.7-1.95-1.68-3.48,.03-6.96,.08-10.44-.03-1.36-.04-2.05,.46-2.69,1.61-4.68,8.34-9.44,16.63-14.16,24.95-.31,.54-.56,1.11-.93,1.86ZM103.94,55.43c-.25-.48-.34-.75-.51-.95-6.37-7.7-12.74-15.41-19.15-23.08-.34-.4-1.11-.76-1.6-.67-7.05,1.18-14.09,2.44-21.38,3.73,.57,.75,.98,1.32,1.43,1.86,5.72,6.92,11.51,13.79,17.14,20.79,1.41,1.75,2.74,2.44,4.96,1.75,1.85-.57,3.84-.7,5.76-1.04,4.39-.78,8.78-1.57,13.35-2.39Zm16.93-31.46c6.8,8.21,13.33,16.13,19.95,23.98,.42,.49,1.54,.69,2.26,.57,4-.61,7.99-1.36,11.98-2.07,2.81-.5,5.61-1.03,8.39-1.55-.05-.37-.03-.46-.07-.51-6.49-7.88-12.97-15.76-19.5-23.61-.3-.37-.99-.7-1.43-.62-7.06,1.2-14.1,2.48-21.58,3.81Zm-29.62,5.21c.22,.41,.29,.62,.42,.78,6.37,7.71,12.73,15.43,19.18,23.08,.46,.55,1.64,.84,2.41,.73,3.3-.45,6.57-1.08,9.85-1.67,3.54-.64,7.07-1.3,10.9-2.01-6.8-8.2-13.35-16.12-19.96-24-.35-.42-1.26-.67-1.83-.57-6.93,1.16-13.84,2.4-20.96,3.66Zm59.45-10.47c6.83,8.25,13.38,16.18,19.99,24.05,.38,.45,1.41,.62,2.07,.52,4.01-.62,7.99-1.35,11.98-2.07,2.87-.51,5.73-1.06,8.9-1.64-6.83-8.24-13.38-16.16-19.97-24.05-.31-.37-1.01-.69-1.45-.62-7.06,1.21-14.11,2.48-21.53,3.81Z"/>
  <path class="cls-1" d="M77.45,164.11c-.93,0-1.77,0-2.62,0-17.93,0-35.85,0-53.78,0-.65,0-1.31,.04-1.96-.03-1.86-.2-2.94-1.3-3-3.13-.06-1.84,1.01-2.97,2.81-3.32,.63-.12,1.3-.06,1.95-.06,61.11,0,122.21,0,183.32,0,.65,0,1.32-.06,1.95,.06,1.8,.34,2.88,1.47,2.82,3.31-.06,1.83-1.13,2.93-2.99,3.14-.65,.07-1.3,.03-1.96,.03-17.93,0-35.85,0-53.78,0-.85,0-1.7,0-2.66,0v29.57c.86,.05,1.7,.13,2.53,.13,17.93,0,35.85,0,53.78,.01,.87,0,1.76-.03,2.59,.16,1.72,.4,2.59,1.62,2.48,3.34-.1,1.62-1.03,2.69-2.7,2.93-.79,.11-1.59,.1-2.39,.1-60.89,0-121.78,0-182.67,0-.65,0-1.31,.02-1.96-.05-1.95-.19-3.16-1.44-3.17-3.21,0-1.74,1.24-3.06,3.14-3.26,.72-.08,1.45-.04,2.18-.04,17.78,0,35.56,0,53.34,0h2.72v-29.71Zm6.79,29.55h56.5v-29.4h-56.5v29.4Z"/>
  <path class="cls-2" d="M22.71,129.02v13.67H202.34v-13.67h-2.68c-20.32,0-40.64,0-60.96,0-3.52,0-5.11-1.05-5.07-3.32,.04-2.25,1.6-3.23,5.17-3.23,21.7,0,43.4,0,65.09,0,4.31,0,5.15,.82,5.15,5.04,0,5.8,.02,11.61,0,17.41-.01,3.39-1.04,4.4-4.43,4.4-61.39,0-122.79,0-184.18,0-3.38,0-4.4-1.01-4.41-4.42-.02-6.02-.02-12.04,0-18.07,.01-3.29,1.05-4.36,4.29-4.36,33.45-.01,66.91,0,100.36,0,.58,0,1.17,.02,1.73,.16,1.62,.41,2.45,1.5,2.43,3.16-.03,1.65-.88,2.76-2.52,3.07-.92,.17-1.88,.15-2.82,.15-31.28,0-62.55,0-93.83,0h-2.95Z"/>
  <path class="cls-1" d="M112.35,215.41c-32.73,0-65.46,0-98.19,0-6.8,0-11.69-3.79-12.9-9.99-.18-.92-.2-1.87-.2-2.81-.01-19.45,0-38.89,0-58.34,0-.36-.02-.73,.01-1.09,.15-1.99,1.52-3.37,3.31-3.34,1.79,.03,3.1,1.41,3.21,3.44,.04,.65,.01,1.31,.01,1.96,0,18.87,0,37.73,0,56.6,0,4.98,2.01,7.03,6.96,7.03,65.32,0,130.63,0,195.95,0,4.94,0,6.96-2.04,6.96-7.03,0-9.07,0-18.14,0-27.21,0-.58-.03-1.16,.02-1.74,.15-1.91,1.41-3.17,3.17-3.21,1.87-.04,3.32,1.23,3.33,3.25,.04,10.45,.18,20.9-.07,31.34-.15,6.33-5.63,11.05-12.28,11.12-6.17,.07-12.34,.02-18.51,.02-26.93,0-53.85,0-80.78,0Z"/>
  <path class="cls-2" d="M49.27,175.75c3.48,0,6.96-.02,10.44,0,2.42,.02,3.81,1.21,3.84,3.18,.02,1.95-1.42,3.32-3.75,3.34-7.03,.04-14.06,.05-21.09,0-2.37-.02-3.74-1.36-3.71-3.36,.03-1.98,1.4-3.14,3.84-3.16,3.48-.03,6.96,0,10.44,0Z"/>
  <path class="cls-2" d="M175.81,182.3c-3.33,0-6.67,.02-10,0-2.72-.02-4.26-1.2-4.3-3.24-.05-2.09,1.44-3.29,4.17-3.3,6.81-.01,13.62-.02,20.43,0,2.58,0,3.99,1.21,3.96,3.27-.03,2.05-1.45,3.23-4.04,3.26-3.41,.03-6.81,0-10.22,0Z"/>
  <path class="cls-2" d="M34.44,91.57c0-5.11,4.16-9.3,9.23-9.27,5.07,.02,9.24,4.26,9.2,9.34-.04,4.99-4.15,9.1-9.16,9.16-5.08,.06-9.26-4.1-9.27-9.22Zm9.17,2.64c1.59-.16,2.56-.99,2.69-2.6,.11-1.45-1.31-2.88-2.74-2.73-1.56,.16-2.54,1.05-2.52,2.7,.02,1.65,1.01,2.45,2.58,2.63Z"/>
  <path class="cls-2" d="M24.32,63.81c5.11-.05,9.33,4.07,9.35,9.15,.02,5.05-4.19,9.27-9.26,9.27-5,0-9.12-4.06-9.21-9.08-.1-5.11,3.99-9.3,9.13-9.34Zm.14,11.89c1.59-.23,2.53-1.11,2.62-2.69,.09-1.5-1.27-2.73-2.82-2.61-1.64,.13-2.51,1.11-2.45,2.71,.06,1.62,1.09,2.42,2.65,2.58Z"/>
  <path class="cls-2" d="M112.75,175.75c3.41,0,6.82-.02,10.22,0,2.38,.02,3.84,1.26,3.87,3.18,.03,1.92-1.46,3.33-3.77,3.34-7.03,.05-14.07,.05-21.1,0-2.31-.01-3.79-1.43-3.76-3.35,.03-1.92,1.5-3.15,3.88-3.17,3.55-.03,7.11,0,10.66,0Z"/>
</svg>