<?xml version="1.0" encoding="UTF-8"?>
<svg id="Calque_1" data-name="Calque 1" xmlns="http://www.w3.org/2000/svg" viewBox="0 0 42.27 42.82">
  <defs>
    <style>
      .cls-1 {
        fill: #fff;
      }
    </style>
  </defs>
  <path class="cls-1" d="M.66,32.13c-.04-5.14,4.11-9.35,9.25-9.39l10.04-.08,.07,9.92c.04,5.14-4.11,9.35-9.25,9.39l-10.04,.08-.07-9.92Zm4.3-.03l.04,5.62,5.74-.04c2.77-.02,5-2.29,4.98-5.06l-.04-5.62-5.74,.04c-2.77,.02-5,2.29-4.98,5.06Z"/>
  <path class="cls-1" d="M41.77,31.82c-.04-5.14-4.25-9.29-9.39-9.25l-10.04,.08,.07,9.92c.04,5.14,4.25,9.29,9.39,9.25l10.04-.08-.07-9.92Zm-4.3,.03l.04,5.62-5.74,.04c-2.77,.02-5.04-2.21-5.06-4.98l-.04-5.62,5.74-.04c2.77-.02,5.04,2.21,5.06,4.98Z"/>
  <path class="cls-1" d="M.5,11c.04,5.14,4.25,9.29,9.39,9.25l10.04-.08-.07-9.92c-.04-5.14-4.25-9.29-9.39-9.25L.43,1.07l.07,9.92Zm4.3-.03l-.04-5.62,5.74-.04c2.77-.02,5.04,2.21,5.06,4.98l.04,5.62-5.74,.04c-2.77,.02-5.04-2.21-5.06-4.98Z"/>
  <path class="cls-1" d="M41.61,10.69c.04,5.14-4.11,9.35-9.25,9.39l-10.04,.08-.07-9.92c-.04-5.14,4.11-9.35,9.25-9.39l10.04-.08,.07,9.92Zm-4.3,.03l-.04-5.62-5.74,.04c-2.77,.02-5,2.29-4.98,5.06l.04,5.62,5.74-.04c2.77-.02,5-2.29,4.98-5.06Z"/>
</svg>