<?xml version="1.0" encoding="UTF-8"?>
<svg xmlns="http://www.w3.org/2000/svg" xmlns:xlink="http://www.w3.org/1999/xlink" viewBox="0 0 1920 1080">
  <defs>
    <style>
      .cls-1, .cls-2 {
        fill: none;
      }

      .cls-2 {
        stroke: #fff;
        stroke-width: .3px;
      }

      .cls-3 {
        fill: url(#Grille_0_25_po_lignes);
        mix-blend-mode: soft-light;
      }

      .cls-4 {
        isolation: isolate;
      }
    </style>
    <pattern id="Grille_0_25_po_lignes" data-name="Grille 0,25 po lignes" x="0" y="0" width="72" height="72" patternTransform="translate(6986.56 11845.62) scale(2.27)" patternUnits="userSpaceOnUse" viewBox="0 0 72 72">
      <g>
        <rect class="cls-1" width="72" height="72"/>
        <g>
          <line class="cls-2" x1="45" y1="71.75" x2="45" y2="144.25"/>
          <line class="cls-2" x1="9" y1="71.75" x2="9" y2="144.25"/>
          <line class="cls-2" x1="63" y1="71.75" x2="63" y2="144.25"/>
          <line class="cls-2" x1="27" y1="71.75" x2="27" y2="144.25"/>
        </g>
        <g>
          <line class="cls-2" x1="71.75" y1="9" x2="144.25" y2="9"/>
          <line class="cls-2" x1="71.75" y1="45" x2="144.25" y2="45"/>
          <line class="cls-2" x1="71.75" y1="27" x2="144.25" y2="27"/>
          <line class="cls-2" x1="71.75" y1="63" x2="144.25" y2="63"/>
        </g>
        <g>
          <line class="cls-2" x1="-.25" y1="9" x2="72.25" y2="9"/>
          <line class="cls-2" x1="-.25" y1="45" x2="72.25" y2="45"/>
          <line class="cls-2" x1="-.25" y1="27" x2="72.25" y2="27"/>
          <line class="cls-2" x1="-.25" y1="63" x2="72.25" y2="63"/>
          <line class="cls-2" x1="45" y1="-.25" x2="45" y2="72.25"/>
          <line class="cls-2" x1="9" y1="-.25" x2="9" y2="72.25"/>
          <line class="cls-2" x1="63" y1="-.25" x2="63" y2="72.25"/>
          <line class="cls-2" x1="27" y1="-.25" x2="27" y2="72.25"/>
        </g>
        <g>
          <line class="cls-2" x1="-72.25" y1="9" x2=".25" y2="9"/>
          <line class="cls-2" x1="-72.25" y1="45" x2=".25" y2="45"/>
          <line class="cls-2" x1="-72.25" y1="27" x2=".25" y2="27"/>
          <line class="cls-2" x1="-72.25" y1="63" x2=".25" y2="63"/>
        </g>
        <g>
          <line class="cls-2" x1="45" y1="-72.25" x2="45" y2=".25"/>
          <line class="cls-2" x1="9" y1="-72.25" x2="9" y2=".25"/>
          <line class="cls-2" x1="63" y1="-72.25" x2="63" y2=".25"/>
          <line class="cls-2" x1="27" y1="-72.25" x2="27" y2=".25"/>
        </g>
      </g>
    </pattern>
  </defs>
  <g class="cls-4">
    <g id="Calque_3" data-name="Calque 3">
      <rect class="cls-3" width="1939.14" height="1097.13"/>
    </g>
  </g>
</svg>