<?xml version="1.0" encoding="UTF-8"?>
<svg id="Calque_1" data-name="Calque 1" xmlns="http://www.w3.org/2000/svg" viewBox="0 0 215.82 216.8">
  <defs>
    <style>
      .cls-1 {
        fill: #fff;
      }

      .cls-2 {
        fill: #ff476b;
      }
    </style>
  </defs>
  <path class="cls-1" d="M20.37,116.85c-4.11-4.47-4.86-9.67-4.84-15.24,.09-26.83,.04-53.66,.04-80.49,0-11.81,7.41-19.24,19.19-19.24,48.75,0,97.5,0,146.25,0,11.91,0,19.27,7.39,19.27,19.36,0,27.11-.04,54.22,.04,81.32,.01,5.25-1.03,10.03-4.72,14.19,.54,.33,.97,.6,1.41,.87,3.4,2.05,5.51,5,6.23,8.9,3.69,19.88,7.39,39.76,11.02,59.65,.31,1.68,.19,3.45,.19,5.18,0,3.26-.39,6.56,0,9.77,1.03,8.46-6.7,13.35-12.97,13.75-.55,.04-1.11,.03-1.66,.03-61.23,0-122.46,0-183.69,.01-4.68,0-8.69-1.48-11.95-4.87-1.76-1.83-2.71-4.04-2.74-6.55-.06-4.5-.33-9.04,.07-13.51,.49-5.5,1.45-10.96,2.43-16.4,2.76-15.33,5.69-30.63,8.45-45.97,.87-4.84,3.2-8.49,8-10.77Zm87.54,76.77c30.3,0,60.59,0,90.89-.03,1.5,0,3.07-.17,4.48-.65,3.05-1.05,4.41-3.28,3.91-6-3.57-19.4-7.15-38.8-10.75-58.2-.74-4.02-3.31-6.15-7.38-6.15-54.08,0-108.15,0-162.23,0-4.09,0-6.66,2.11-7.4,6.12-3.6,19.4-7.16,38.8-10.77,58.2-.37,1.99,.24,3.53,1.74,4.79,1.86,1.57,4.06,1.93,6.41,1.93,30.37-.02,60.73-.01,91.1-.01Zm.05-78.15c24.34,0,48.67,0,73.01,0,7.99,0,12.2-4.19,12.2-12.15,0-27.38,0-54.76,0-82.14,0-7.98-4.22-12.2-12.17-12.2-48.74,0-97.48,0-146.22,0-7.83,0-12.09,4.25-12.1,12.07,0,27.45,0,54.9,0,82.35,0,7.84,4.23,12.08,12.07,12.08,24.4,0,48.81,0,73.21,0Zm99.21,84.3c-3.74,.33-7.28,.91-10.83,.92-56.32,.06-112.63,.07-168.95,0-6.24,0-12.6,1.04-18.66-1.56-.6,6.39,1.47,8.67,7.74,8.67,60.96,0,121.92,0,182.89,0,6.28,0,8.35-2.26,7.81-8.03Z"/>
  <path class="cls-2" d="M107.94,186.54c-15.95,0-31.89,0-47.84,0-.9,0-1.81,0-2.69-.14-4.2-.69-6.76-3.95-6.15-8.15,1.4-9.66,2.93-19.31,4.41-28.96,.63-4.11,1.3-8.21,1.9-12.32,.72-4.93,3.39-7.31,8.42-7.31,27.94,0,55.88,0,83.82,0,5.13,0,7.7,2.37,8.48,7.47,1.99,13.07,4.01,26.15,6.09,39.21,1.07,6.74-1.77,10.2-8.61,10.2-15.95,0-31.89,0-47.84,0Zm49.25-7.19c-.08-.91-.1-1.59-.2-2.26-1.88-12.68-3.81-25.35-5.6-38.03-.26-1.85-.87-2.33-2.69-2.33-27.12,.06-54.23,.04-81.35,.04h-2.25c-2.31,14.34-4.58,28.39-6.87,42.58h98.95Z"/>
  <path class="cls-2" d="M26.29,143.94c-.02-5.9,4.59-10.6,10.47-10.65,5.98-.06,10.79,4.64,10.81,10.57,.02,5.89-4.84,10.74-10.72,10.71-5.83-.03-10.54-4.77-10.56-10.62Zm14.16,.05c.06-1.92-1.55-3.57-3.5-3.59-1.92-.02-3.43,1.39-3.53,3.3-.1,1.96,1.41,3.64,3.35,3.73,1.89,.09,3.63-1.53,3.69-3.44Z"/>
  <path class="cls-2" d="M186.05,147.48c-.03,1.95-1.66,3.5-3.65,3.45-2.02-.05-3.48-1.6-3.4-3.64,.07-1.88,1.63-3.4,3.49-3.4,1.91,0,3.59,1.69,3.56,3.59Z"/>
  <path class="cls-2" d="M189.58,158.04c-2.02,0-3.52-1.55-3.49-3.57,.03-1.9,1.53-3.42,3.42-3.47,1.93-.05,3.62,1.58,3.64,3.5,.02,1.94-1.59,3.55-3.57,3.54Z"/>
  <path class="cls-2" d="M182.53,158.11c1.96,.02,3.57,1.68,3.52,3.61-.06,1.96-1.72,3.5-3.69,3.42-1.92-.07-3.36-1.57-3.36-3.5,0-2,1.55-3.56,3.54-3.54Z"/>
  <path class="cls-2" d="M178.94,154.5c.02,1.95-1.58,3.54-3.57,3.53-1.94,0-3.42-1.44-3.48-3.37-.07-1.99,1.45-3.63,3.42-3.67,1.95-.04,3.61,1.56,3.63,3.5Z"/>
  <path class="cls-2" d="M108.01,108.4c-17.33,0-34.67,0-52,0-7.71,0-12.02-4.26-12.03-11.92-.01-22.81-.01-45.61,0-68.42,0-7.69,4.31-12,11.97-12,34.67,0,69.34,0,104,0,7.54,0,11.92,4.33,11.92,11.83,.01,22.88,.01,45.75,0,68.63,0,7.56-4.34,11.87-11.86,11.88-17.33,0-34.67,0-52,0Zm-.22-7.1c17.34,0,34.67,0,52.01,0,3.84,0,4.94-1.09,4.94-4.96,0-22.74,0-45.48,0-68.22,0-3.84-1.12-4.94-4.97-4.94-34.54,0-69.07,0-103.61,0-3.96,0-5.04,1.08-5.04,5.08,0,22.67,0,45.34,0,68.02,0,3.98,1.07,5.04,5.07,5.04,17.2,0,34.4,0,51.59,0Z"/>
  <path class="cls-2" d="M103.73,143.94c3.3,.05,4.99,2.89,3.7,5.22-.33,.59-.84,1.1-1.32,1.58-6.6,6.62-13.21,13.22-19.83,19.83-.29,.29-.57,.61-.9,.86-1.59,1.25-3.56,1.16-4.88-.21-1.3-1.35-1.38-3.4-.01-4.87,1.69-1.83,3.5-3.55,5.26-5.31,5.14-5.14,10.26-10.3,15.45-15.4,.84-.82,1.98-1.34,2.54-1.71Z"/>
  <path class="cls-2" d="M75.57,158.43c-.88-.71-2.28-1.32-2.69-2.32-.42-1.02-.33-2.84,.34-3.62,2.38-2.78,5.05-5.33,7.73-7.82,1.32-1.22,3.28-.99,4.54,.2,1.34,1.26,1.64,3.27,.35,4.68-2.48,2.7-5.12,5.26-7.77,7.8-.5,.48-1.36,.61-2.5,1.08Z"/>
  <path class="cls-2" d="M108.72,90.6c-5.56,.02-10.04-1.17-13.83-4.32-3.41-2.83-5.23-6.43-4.55-10.96,.62-4.15,4.49-6.93,8.5-5.78,6.12,1.75,12.08,1.69,18.21,0,4.86-1.35,9.11,2.84,8.62,8.08-.44,4.67-3.02,7.94-6.92,10.24-3.29,1.94-6.91,2.79-10.02,2.74Zm9.69-14.14c-7.08,2.16-14.02,2.04-21,.04,.29,4.35,4.73,7.07,10.86,6.98,5.79-.08,9.99-2.86,10.14-7.02Z"/>
  <path class="cls-2" d="M136.42,69.36c-5.91,.04-10.62-4.55-10.7-10.42-.08-5.98,4.6-10.8,10.53-10.85,5.88-.04,10.76,4.81,10.76,10.68,0,5.83-4.73,10.55-10.59,10.59Zm-.12-14.15c-1.94,.02-3.49,1.64-3.45,3.62,.04,2,1.6,3.48,3.62,3.41,1.86-.06,3.4-1.63,3.41-3.47,.01-1.89-1.67-3.57-3.58-3.56Z"/>
  <path class="cls-2" d="M90.12,58.83c-.07,5.99-4.78,10.59-10.8,10.52-5.81-.07-10.53-4.88-10.48-10.68,.06-5.86,4.96-10.65,10.85-10.57,5.81,.07,10.48,4.89,10.42,10.73Zm-7.12-.16c-.04-1.96-1.71-3.54-3.63-3.45-1.84,.09-3.39,1.7-3.4,3.52-.01,1.93,1.62,3.53,3.58,3.51,2-.02,3.49-1.57,3.45-3.58Z"/>
  <path class="cls-2" d="M78.08,33.21c4.69,.1,8.85,1.6,12.21,4.92,.58,.57,1.06,1.84,.8,2.46-.24,.57-1.58,1.03-2.37,.94-9.51-1.09-18.17,.95-25.94,6.62-.56,.41-1.46,.35-2.2,.51-.07-.77-.37-1.59-.19-2.29,2.03-7.76,9.28-13.12,17.69-13.16Z"/>
  <path class="cls-2" d="M137.64,33.22c8.46-.03,15.83,5.39,17.83,13.23,.18,.69-.17,1.5-.27,2.26-.74-.19-1.63-.18-2.2-.6-7.71-5.64-16.32-7.63-25.74-6.6-.82,.09-1.71-.48-2.57-.75,.3-.91,.34-2.05,.93-2.68,2.9-3.04,7.6-4.85,12.02-4.87Z"/>
</svg>