<?xml version="1.0" encoding="UTF-8"?>
<svg id="Calque_1" data-name="Calque 1" xmlns="http://www.w3.org/2000/svg" viewBox="0 0 38.44 37.4">
  <defs>
    <style>
      .cls-1 {
        fill: #7a71f2;
      }
    </style>
  </defs>
  <path class="cls-1" d="M19.59,.46c2.57,.07,5.15,.08,7.71,.21,2.95,.16,5.58,1.12,7.57,3.44,1.19,1.39,1.9,3,2.18,4.79,.19,1.2,.28,2.43,.29,3.64,.03,4.11,.02,8.23,0,12.34,0,1.61-.09,3.22-.56,4.78-1.17,3.9-3.82,6.16-7.77,6.91-2.22,.42-4.49,.36-6.74,.36-3.3,0-6.59-.03-9.89-.07-1.95-.03-3.88-.26-5.67-1.11-2.9-1.37-4.61-3.7-5.3-6.8-.4-1.78-.41-3.6-.42-5.41-.01-3.9,.02-7.8,.06-11.7,.02-1.92,.27-3.81,1.09-5.57C3.49,3.46,5.73,1.74,8.74,1.01c2.08-.5,4.21-.44,6.33-.49,1.51-.03,3.01,0,4.52,0,0-.02,0-.04,0-.06Zm14.61,18.3s-.04,0-.05,0c0-.95,.03-1.9,0-2.85-.07-2.06-.08-4.13-.29-6.17-.29-2.85-2.13-4.82-4.9-5.5-1.43-.35-2.89-.36-4.35-.37-3.05-.03-6.1-.03-9.14-.02-1.85,0-3.7-.04-5.53,.3-2.69,.51-4.47,2.04-5.19,4.73-.33,1.26-.38,2.55-.4,3.84-.04,2.94-.08,5.88-.05,8.82,.02,2.05,.1,4.1,.27,6.14,.12,1.43,.69,2.71,1.7,3.78,1.37,1.45,3.14,1.96,5.03,2.05,2.33,.11,4.67,.14,7,.15,3.15,0,6.31,.09,9.46-.21,1.47-.14,2.82-.6,3.96-1.58,1.62-1.4,2.19-3.26,2.28-5.29,.11-2.6,.14-5.21,.2-7.82Z"/>
  <path class="cls-1" d="M9.84,18.74c0-5.15,4.19-9.35,9.36-9.36,5.16,0,9.36,4.18,9.36,9.35,0,5.16-4.2,9.37-9.36,9.37-5.16,0-9.36-4.2-9.37-9.36Zm9.34,6.05c3.36,.01,6.07-2.66,6.09-6.01,.02-3.38-2.66-6.09-6.03-6.11-3.38-.01-6.08,2.67-6.09,6.05,0,3.36,2.67,6.06,6.03,6.07Z"/>
  <path class="cls-1" d="M31.11,9.02c0,1.22-.98,2.18-2.2,2.17-1.21,0-2.17-.99-2.16-2.21,0-1.2,.98-2.15,2.19-2.15,1.23,0,2.18,.97,2.18,2.19Z"/>
</svg>