<?xml version="1.0" encoding="UTF-8"?>
<svg id="Calque_1" data-name="Calque 1" xmlns="http://www.w3.org/2000/svg" viewBox="0 0 116.9 116.41">
  <defs>
    <style>
      .cls-1 {
        fill: #fff;
      }
    </style>
  </defs>
  <g>
    <g>
      <path class="cls-1" d="M13.07,48.6c.13,.04,.34,.04,.5,.04,.16,.01,.32,.01,.49,.01,.16,0,.32,.01,.47,.02,.2,0,.39,.02,.58,.02,.76,.04,1.48,.06,2.19,.07,.37,.02,.75,.03,1.13,.04,.38,.01,.75,.03,1.11,.04l.15,.02s.03,0,.05,0c.03,0,.06,0,.09,0,.1,0,.24-.05,.32-.2,.03-.05,.05-.1,.07-.15,.02-.04,.04-.09,.05-.11,.02-.03,.04-.06,.06-.1,.02-.04,.03-.07,.04-.1,.03-.08,.05-.16,.06-.25,.02-.07,.03-.15,.06-.22l.2-.62c.08-.25-.17-.47-.38-.54-.09-.03-.19-.08-.28-.14-.04-.02-.07-.04-.11-.07-.05-.03-.11-.07-.16-.1l-.38-.22c-.8-.46-1.62-.92-2.38-1.48h.02c.11,.02,.24,.04,.35,.05,.44,.04,.88,.08,1.32,.13,.51,.05,1.03,.11,1.54,.15,.07,0,.16,.02,.28,.03l.2,.02c.18,0,.35,0,.43,0h.04c.16-.07,.26-.17,.31-.32,.02-.06,.04-.13,.05-.2,.01-.05,.02-.11,.04-.16,.07-.21,.15-.39,.25-.6l.08-.25h-.02c.04-.19-.02-.39-.22-.46-.1-.03-.49-.29-.65-.39-.28-.21-.57-.41-.71-.5-.48-.32-.95-.65-1.43-.97-.79-.54-1.59-1.08-2.38-1.61l-.08-.06s-.07-.05-.1-.08c-.07-.07-.14-.1-.23-.13-.36-.12-.69,.69-.69,.69-.04,.13-.03,.23,.03,.33l.05,.05s.04,.04,.06,.05c.05,.04,.1,.07,.14,.09l3.27,2.22,1.04,.72c.06,.04,.11,.08,.17,.12,.08,.05,.16,.11,.24,.17-.43-.05-.87-.1-1.3-.14-.32-.03-.64-.07-.95-.1-.27-.03-.55-.06-.82-.08-.28-.02-.56-.05-.83-.08-.26-.03-.51-.05-.77-.08-.25-.02-.5-.04-.75-.07-.1-.02-.2-.02-.29-.02-.18,.03-.32,.14-.37,.29-.04,.11-.07,.23-.1,.34-.03,.11-.06,.22-.09,.33-.09,.27-.02,.45,.23,.59,.03,.02,.06,.04,.09,.05h.01c.05,.05,.1,.08,.14,.11l1.25,.73c.1,.06,.21,.12,.31,.17,.12,.06,.24,.13,.35,.19,.39,.22,.78,.44,1.19,.68,.15,.08,.3,.17,.45,.25,.37,.21,.75,.43,1.14,.63-.02,.03-.04,.06-.1,.11-.16,0-.34,0-.52-.02-.08,0-.16-.01-.24-.01-.43-.03-.86-.03-1.29-.04l-2.52-.08-.39-.02c-.28-.01-.56-.03-.83-.03h-.16s-.08,0-.13,0h-.04s0,0-.01,.01h-.06s-.04,.05-.04,.05c-.04,.04-.09,.1-.12,.18-.03,.1-.17,.85,.21,.98Z"/>
      <path class="cls-1" d="M18.28,35.77l.07,.07c.09,.08,.16,.14,.22,.22,.11,.12,.2,.24,.3,.37l.11,.15c.76,.88,1.36,1.61,1.9,2.28,.03,.04,.11,.12,.21,.24,.18,.21,.45,.53,.71,.83,.24,.28,.8,.95,.88,1,.05,.03,.1,.04,.14,.04,.1,0,.17-.05,.21-.07,0,0,.48-.41,.52-.46,.07-.12,.07-.25-.01-.35l-.07-.11s-.04-.05-.06-.07c-.01-.01-.02-.02-.04-.05l-.86-1.05v-.02c.3-.52,.61-1.03,.92-1.54,.32-.53,.64-1.06,.97-1.6,.02-.03,.03-.06,.04-.08,0,0,.01,0,.02,0,.03,0,.07,.02,.09,.02,.19,.05,.42,.08,.63,.1,.08,.01,.16,.03,.24,.05,.15,.03,.29,.06,.48,.08,.02,0,.05,.01,.06,0,.14,.02,.27-.05,.34-.17,.07-.11,.16-.61,.15-.74v-.05c0-.1-.07-.17-.1-.19l-.04-.05h-.07s-.05-.01-.05-.01c-.06-.02-.1-.03-.14-.04-1.49-.28-2.82-.51-4.05-.72-.47-.08-.93-.16-1.39-.25l-.63-.11s-.07-.01-.11-.02c-.02,0-.05,0-.04,0l-.04-.02s-.09-.04-.14-.07c-.03-.02-.06-.04-.09-.04-.12-.04-.21-.04-.32,.06-.11,.07-.46,.64-.61,.88l-.53,.89c-.09,.14-.08,.29,0,.42,.05,.07,.1,.12,.15,.18Zm1.24-.52l.31-.51c.18,.02,.79,.12,1.29,.21l.27,.05c.73,.14,1.5,.28,1.77,.32l-1.49,2.48-1.78-2.13s-.07-.08-.11-.11c-.03-.03-.06-.07-.1-.11-.06-.07-.11-.13-.15-.19Zm6.66,.32h0Z"/>
      <path class="cls-1" d="M23.46,28.54s.06,.06,.11,.09c.04,.03,.1,.07,.13,.1,.06,.05,.1,.11,.15,.16,.05,.06,.11,.12,.16,.17,.38,.38,.75,.75,1.15,1.13,.07,.07,.14,.14,.21,.22,.07,.08,.15,.16,.22,.23,.31,.31,.62,.62,.93,.93,.41,.41,.82,.82,1.23,1.22l.06,.05s.06,.05,.05,.04l.06,.04s.08,.02,.12,.02c.1,0,.18-.04,.27-.13,.03-.03,.07-.06,.11-.09,.05-.04,.1-.08,.14-.12,.12-.12,.24-.25,.36-.37,.12-.13,.25-.25,.37-.37l.78-.81c.14-.15,.29-.3,.43-.49,.12-.17,.23-.3,.34-.42,.31-.33,.42-.73,.5-1.07,0-.01,.01-.03,.02-.06l.02-.05c.02-.05,.02-.09,.03-.15,.03-.57-.15-1.06-.52-1.42-.47-.45-1.24-.68-1.82-.55l-.12,.02s-.09,.02-.14,.02c.03-.5-.16-1.01-.52-1.35-.88-.84-2.27-.48-3.06,.34-.08,.08-.16,.18-.24,.27-.08,.09-.15,.18-.23,.26-.18,.18-.35,.37-.52,.55-.18,.19-.36,.38-.54,.57-.13,.14-.27,.28-.37,.47-.1,.16-.13,.3,.04,.47l.1,.1Zm2.73-1.92s.03-.04,.05-.06c.25-.26,.87-.41,1.18-.12,.39,.37-.05,1.01-.23,1.2-.02,.02-.04,.04-.06,.06-.03,.03-.06,.05-.08,.08-.1,.1-.19,.21-.29,.31-.09,.1-.17,.2-.26,.29l-.67,.7c-.34-.33-.67-.66-1-.99h0s1.29-1.34,1.29-1.34c.03-.04,.06-.07,.09-.11Zm.62,3.21c.05-.05,.11-.1,.16-.16,.17-.18,.33-.35,.49-.53,.16-.17,.31-.35,.48-.52,.4-.41,1.49-.88,2.02-.37,.47,.45,.02,1.12-.45,1.61-.25,.26-.5,.52-.76,.78-.23,.23-.46,.47-.68,.7-.14-.14-.27-.28-.4-.42-.08-.09-.16-.17-.24-.25-.14-.13-.27-.26-.4-.39-.11-.11-.23-.22-.34-.34,.04-.04,.08-.08,.12-.12Z"/>
      <path class="cls-1" d="M34.83,26.4c-.03-.09-.08-.15-.12-.21-.1-.13-.2-.26-.3-.4-.19-.25-.38-.51-.56-.77-.18-.26-.37-.51-.56-.77-.14-.19-.28-.37-.41-.56-.12-.17-.25-.34-.38-.51-.19-.25-.38-.5-.55-.76-.1-.15-.2-.29-.31-.43l-.1-.13c-.08-.1-.15-.21-.23-.31-.08-.11-.16-.21-.24-.32-.14-.18-.45-.28-.64-.13-.03,.02-.05,.05-.07,.07l-.13,.19c-.08,.1-.16,.21-.22,.34-.07,.17,.03,.33,.11,.43,.07,.1,.16,.19,.24,.27,.07,.08,.15,.16,.21,.24,.07,.09,.13,.18,.2,.27,.06,.09,.13,.18,.19,.26,.04,.05,.07,.1,.1,.15,.04,.06,.07,.12,.12,.18,.12,.15,.23,.31,.34,.46,.12,.16,.24,.32,.36,.48l.02,.03c.05,.11,.13,.23,.2,.32l.21,.28c.06,.07,.11,.15,.17,.22,.14,.18,.28,.35,.39,.53,.12,.19,.26,.41,.42,.61l.54,.7c.06,.08,.15,.13,.25,.13,.07,0,.15-.03,.22-.08l.45-.34c.22-.17,.11-.41,.08-.46Z"/>
      <path class="cls-1" d="M43.21,17.55c-.2,.01-.42,.03-.63,.08l-.16,.03c-.24,.06-.62,.14-.96,.16-.49,.04-.79-.05-.89-.29-.08-.2-.05-.46,.06-.74,.13-.3,.36-.55,.58-.64,.67-.26,1.02-.38,1.65-.15,.16,.06,.3,.13,.44,.24,.13,.11,.29,.21,.56,.1,.12-.05,.25-.1,.36-.15,.19-.09,.24-.15,.25-.37-.01-.19-.06-.35-.14-.53-.03-.07-.06-.14-.09-.21-.03-.07-.06-.14-.09-.22-.06-.16-.12-.32-.18-.48-.06-.16-.11-.32-.18-.47-.1-.24-.3-.35-.52-.26-.19,.08-.35,.14-.45,.19-.13,.06-.18,.13-.22,.18l-.02,.06c-.02,.07-.01,.15,.02,.28,.03,.1,.07,.2,.13,.35-.57-.1-1.09-.03-1.75,.23-.51,.2-.84,.35-1.19,.86-.52,.68-.67,1.52-.4,2.19,.26,.67,.98,1.37,2.86,.94l.09-.02c.16-.04,.33-.08,.49-.1,.27-.04,.56-.05,.83-.06h.26c.06-.02,.14-.02,.25,0,.08,0,.16,.02,.26,.04,.18,.02,.39,.2,.46,.38,.23,.59-.77,1.13-1.17,1.3-.33,.13-.95,.27-1.32,.2-.36-.09-.64-.21-.9-.36-.06-.03-.17-.09-.31-.15-.21-.07-.3-.06-.35-.04-.19,.08-.5,.77-.42,.95,.03,.08,.11,.15,.27,.24l.11,.05c.07,.03,.13,.06,.18,.1,.53,.3,1.11,.45,1.69,.45,.44,0,.88-.08,1.3-.24,.79-.31,1.74-.79,2.11-1.76,.15-.41,.16-.83,.02-1.18-.54-1.35-1.96-1.24-2.9-1.17Z"/>
      <path class="cls-1" d="M54.18,17.59s0,0,0,.01c.01,.03,.03,.06,.04,.08,.09,.18,.2,.38,.32,.55,.04,.07,.08,.14,.11,.21,.07,.13,.14,.27,.24,.43,0,.02,.02,.05,.03,.05,.07,.12,.22,.18,.35,.16,.13-.02,.58-.27,.66-.36l.03-.04c.09-.06,.09-.16,.1-.19v-.06s-.03-.05-.03-.05l-.02-.05c-.02-.06-.04-.1-.06-.14-.74-1.32-1.4-2.49-2.03-3.58-.24-.42-.48-.84-.72-1.26l-.29-.52s-.04-.06-.06-.09c-.01-.02-.03-.04-.04-.07-.02-.06-.03-.1-.04-.16,0-.03-.01-.07-.03-.08-.05-.11-.11-.19-.25-.21-.13-.04-.85,.06-1.06,.09l-1.02,.15c-.17,.02-.28,.12-.32,.28-.02,.08-.03,.15-.04,.23v.1c-.02,.11-.02,.21-.04,.32-.02,.16-.05,.31-.09,.47l-.04,.18c-.2,1.14-.37,2.06-.54,2.92,0,.05-.03,.17-.06,.33-.05,.28-.12,.67-.18,1.06-.07,.36-.22,1.22-.21,1.31,.03,.18,.19,.24,.25,.26,0,0,.58,.1,.68,.1,0,0,0,0,0,0,.14-.02,.23-.11,.27-.23l.04-.13s.02-.06,.02-.09c0-.02,0-.03,.02-.06l.26-1.33v-.03c.61-.09,1.2-.18,1.79-.26,.61-.09,1.22-.18,1.85-.27,.04,0,.07-.01,.1-.02Zm-.65-1.15l-2.86,.43,.5-2.74c0-.05,.01-.1,.02-.16,0-.05,0-.09,.02-.14,.01-.09,.03-.17,.05-.24l.59-.09c.1,.15,.42,.71,.69,1.16l.12,.2c.36,.65,.74,1.33,.88,1.57Z"/>
      <path class="cls-1" d="M62.43,19.01c.36,0,.69-.07,1.14-.3l.11-.04s.09-.04,.14-.07c.46-.34,.72-.79,.75-1.31,.05-.65-.27-1.39-.74-1.75l-.1-.08s-.07-.06-.1-.09c.41-.3,.67-.76,.71-1.26,.04-.57-.2-1.1-.67-1.51-.42-.36-.98-.59-1.55-.63-.23-.02-.47,0-.7-.02-.25-.02-.5-.03-.75-.05-.26-.02-.53-.03-.8-.05-.19-.01-.39-.03-.59,.01-.19,.02-.32,.09-.34,.34v.14s-.02,.09,0,.14c0,.05,0,.12,0,.16,0,.08-.02,.15-.03,.22-.01,.08-.02,.16-.03,.24-.05,.53-.1,1.06-.14,1.6,0,.1-.02,.2-.04,.3-.02,.11-.03,.22-.04,.32-.04,.43-.08,.87-.12,1.3-.05,.58-.11,1.16-.15,1.73v.08s0,.06,0,.06v.04s.01,.03,.01,.03c.08,.18,.22,.22,.33,.22,.05,0,.1,.01,.14,.02,.06,.01,.12,.02,.18,.03,.17,.01,.35,.03,.52,.04,.18,.02,.35,.03,.52,.04l1.12,.08c.14,.01,.28,.02,.42,.02,.07,0,.15,0,.23,0,.21-.02,.38-.02,.54,0Zm-.42-4.39s-.06,0-.09-.01c-.03,0-.07-.01-.1-.01-.14,0-.27-.01-.41-.02-.13,0-.27,0-.4-.02l-.97-.07c.03-.46,.08-.92,.12-1.38v-.03s1.86,.13,1.86,.13c.05,0,.1,0,.14,0,.03,0,.06,0,.08,0,.19,.01,.41,.12,.58,.27,.11,.1,.28,.3,.27,.55-.04,.54-.8,.6-1.07,.59Zm-2.21,2.48c.02-.13,.03-.23,.04-.34,.01-.19,.03-.38,.05-.56,.01-.16,.03-.32,.04-.48,.06,0,.12,.01,.17,.02,.07,0,.14,.02,.22,.02,.24,.02,.47,.03,.71,.04,.24,0,.47,.02,.71,.04,.26,.02,.68,.16,1.04,.42,.21,.16,.56,.48,.53,.9h0c-.02,.29-.19,.49-.52,.6-.32,.11-.72,.1-1,.08-.37-.03-.73-.06-1.09-.08-.32-.03-.64-.05-.97-.08,.02-.19,.04-.39,.07-.57Z"/>
      <path class="cls-1" d="M69.12,12.95s-.07,0-.1,0l-.24,.03c-.12,0-.26,0-.4,.05-.18,.06-.24,.23-.26,.36-.03,.12-.04,.24-.06,.36-.01,.11-.03,.21-.05,.31-.02,.11-.05,.21-.08,.32-.03,.11-.05,.22-.08,.32-.01,.06-.03,.11-.05,.17-.02,.07-.05,.14-.06,.21-.04,.18-.09,.37-.13,.55-.05,.2-.1,.39-.14,.59l-.03,.06c-.04,.08-.08,.2-.11,.33l-.08,.34c-.02,.09-.04,.18-.06,.28-.05,.22-.09,.43-.16,.65-.07,.23-.15,.46-.2,.7l-.2,.86c-.02,.09,0,.17,.04,.24,.05,.08,.13,.13,.23,.15l.55,.12s.06,.01,.09,.01c.21,0,.3-.19,.32-.25,.05-.08,.06-.15,.08-.23,.04-.15,.07-.31,.11-.46,.07-.32,.15-.63,.24-.94,.09-.3,.16-.61,.23-.91,.05-.23,.11-.45,.17-.68,.05-.2,.1-.41,.15-.62,.07-.3,.14-.61,.23-.9,.05-.17,.09-.34,.13-.51l.04-.17c.03-.13,.06-.25,.09-.38s.06-.25,.09-.38c.03-.13,0-.28-.07-.4-.06-.09-.14-.16-.23-.18Z"/>
      <path class="cls-1" d="M83.19,18.67c.06-.11,.08-.21,.06-.31-.02-.11-.09-.2-.19-.25-.18-.1-.33-.18-.43-.23-.13-.05-.21-.06-.27-.05l-.06,.02c-.06,.03-.12,.09-.21,.19-.06,.08-.11,.18-.19,.32-.28-.5-.67-.86-1.3-1.2-.48-.26-.8-.42-1.42-.36-.85,.04-1.6,.45-1.94,1.08-.35,.63-.44,1.63,1.1,2.8l.1,.08c.12,.09,.25,.19,.36,.29,.21,.18,.39,.39,.57,.6l.18,.2s.1,.1,.15,.2c.05,.07,.09,.13,.14,.22,.1,.15,.1,.42,0,.59-.3,.55-1.36,.13-1.74-.08-.31-.17-.82-.56-.99-.89-.16-.34-.25-.62-.3-.92-.01-.07-.04-.19-.08-.33-.07-.21-.15-.26-.19-.29-.09-.05-.29-.03-.58,.05-.36,.1-.4,.19-.42,.23-.04,.07-.05,.17-.01,.36l.03,.11c.02,.07,.04,.14,.04,.21,.19,1.04,.82,1.93,1.74,2.43,.55,.3,1.23,.62,1.95,.62,.25,0,.5-.03,.75-.12,.41-.15,.74-.41,.92-.74,.7-1.28-.29-2.3-.95-2.98-.14-.15-.3-.3-.46-.43l-.13-.1c-.2-.15-.5-.38-.73-.63-.35-.35-.46-.65-.34-.87,.24-.44,1.07-.6,1.47-.38,.63,.35,.94,.54,1.17,1.18,.06,.17,.09,.31,.1,.49,0,.17,.03,.35,.27,.49,.11,.06,.24,.13,.36,.19,.18,.09,.27,.09,.44-.05,.14-.13,.23-.27,.32-.44,.04-.07,.07-.13,.1-.2,.03-.07,.07-.14,.11-.21,.08-.15,.17-.29,.25-.44,.09-.15,.17-.29,.25-.44Z"/>
      <path class="cls-1" d="M84.42,28.71c.07,.06,.16,.1,.24,.1,.06,0,.13-.02,.19-.05,.06-.04,.1-.08,.13-.11l.08-.1c.29-.32,.58-.64,.87-.97,.29-.32,.58-.64,.87-.97,.6-.67,1.18-1.34,1.77-2.02,.35,.28,.69,.58,1.02,.86l.7,.61c.07,.06,.15,.09,.23,.08,.1,0,.21-.07,.3-.18l.05-.05s.09-.09,.12-.14c.29-.34,.17-.57,0-.71l-.99-.87c-.5-.44-1.01-.87-1.52-1.3-.51-.43-1.01-.86-1.51-1.29-.02-.02-.1-.09-.17-.13l-.09-.08-.09-.05c-.15-.06-.31-.02-.41,.1-.02,.03-.04,.05-.06,.08-.02,.02-.03,.04-.05,.07h0c-.21,.25-.44,.5-.05,.84,.27,.23,.54,.47,.81,.7,.24,.21,.48,.42,.72,.63-.66,.75-1.34,1.53-2.02,2.27-.31,.34-.62,.68-.93,1.03l-.7,.8c-.05,.06-.08,.14-.07,.23,0,.1,.06,.2,.14,.27l.39,.34Z"/>
      <path class="cls-1" d="M89.98,31.2c-.48,.47-.69,1.27-.69,1.86,.01,.68,.53,1.48,.84,1.9,.63,.85,1.49,1.3,2.41,1.31,.5,0,1.03-.12,1.54-.39,.1-.04,.21-.1,.3-.17l1.02-.75c.27-.2,.53-.4,.8-.61,.27-.2,.53-.41,.8-.61,.04-.03,.09-.06,.13-.09,.05-.03,.1-.06,.14-.1,.09-.07,.18-.13,.25-.21,.13-.14,.15-.26,.06-.44-.04-.07-.09-.14-.14-.2l-.11-.16c-.05-.06-.1-.11-.15-.14-.07-.06-.27-.18-.54,.02l-.49,.36c-.21,.16-.42,.32-.62,.48s-.41,.33-.62,.48c-.11,.08-.23,.17-.35,.25-.12,.09-.24,.17-.36,.26-.02,.02-.05,.03-.08,.05-.05,.02-.1,.05-.16,.09-.1,.07-.2,.14-.31,.22-.1,.07-.2,.12-.33,.19-1.11,.5-1.86-.1-2.3-.69-.26-.35-.54-.8-.47-1.27,.07-.44,.17-.68,.53-.95l.15-.11c.06-.05,.12-.1,.17-.15,.05-.05,.09-.09,.15-.13l.08-.06c.4-.29,.8-.59,1.19-.89l.21-.17c.13-.1,.25-.21,.39-.31l.23-.17c.13-.09,.33-.23,.5-.37,.13-.1,.26-.19,.36-.28l.05-.04s.05-.05,.09-.09l.04-.03,.02-.04c.04-.11-.02-.23-.09-.35l-.18-.25c-.11-.15-.21-.27-.35-.29-.14-.02-.26,.06-.38,.15-.38,.28-.75,.56-1.13,.84-.06,.05-.12,.1-.18,.14-.05,.04-.1,.09-.16,.13-.27,.21-.55,.41-.83,.62-.28,.21-.56,.42-.84,.63-.19,.14-.37,.29-.58,.5Z"/>
      <path class="cls-1" d="M95.12,38.52l-1.64,.72c-.13,.06-.21,.17-.2,.25-.01,.07,0,.18,.06,.32,.04,.13,.09,.25,.11,.32,.14,.32,.27,.63,.41,.94,.12,.29,.25,.58,.37,.86,.12,.28,.27,.6,.48,.86,.74,.9,1.86,1.4,3.01,1.41,.53,0,1.07-.1,1.57-.32,1.46-.64,2.26-2.15,1.9-3.59-.1-.42-.26-.83-.41-1.23-.05-.12-.09-.24-.14-.35-.05-.14-.11-.28-.16-.42-.1-.28-.21-.57-.34-.86l-.09-.21c-.05-.12-.1-.22-.19-.35-.14-.13-.31-.17-.48-.12-.06,0-.12,.03-.18,.05l-.32,.13c-.36,.15-.71,.3-1.06,.46-.56,.24-1.14,.5-1.72,.72-.34,.13-.67,.27-.99,.41Zm1.06,3.96c-.2-.13-.53-.42-.62-.64l-.78-1.78,.91-.4c.29-.13,.59-.25,.89-.36,.3-.12,.6-.23,.89-.36l.57-.25c.11-.05,.23-.1,.35-.15,.12-.05,.23-.1,.35-.15l.12-.05c.1-.05,.2-.09,.31-.13l.09,.24s.02,.06,.02,.08v.05c.19,.49,.36,.92,.53,1.3,.55,1.25,.16,2.32-1.04,2.85-.78,.34-1.81,.24-2.56-.25Z"/>
      <path class="cls-1" d="M100.46,46.74c-.19,.05-.38,.09-.57,.14h-.04c-.12,0-.27,.04-.37,.06l-.34,.09c-.09,.02-.18,.05-.27,.07-.22,.06-.43,.12-.64,.15-.24,.04-.48,.08-.72,.14l-.86,.22c-.09,.02-.17,.08-.21,.16-.04,.07-.04,.16-.02,.25l.14,.55c.06,.22,.25,.25,.35,.25,.02,0,.04,0,.05,0,.08,0,.17-.02,.24-.03,.16-.04,.32-.08,.48-.12,.31-.08,.62-.16,.93-.22,.31-.06,.62-.14,.92-.21,.23-.06,.45-.11,.68-.16,.21-.04,.41-.1,.62-.15,.3-.07,.61-.15,.91-.21,.17-.03,.34-.07,.5-.12l.17-.05c.12-.03,.25-.06,.37-.09,.13-.03,.26-.06,.39-.09,.11-.03,.21-.1,.29-.19,.08-.11,.11-.23,.09-.34,0-.04-.02-.07-.04-.1l-.13-.2c-.06-.11-.12-.23-.22-.34-.13-.13-.32-.1-.44-.07-.12,.03-.23,.07-.35,.11-.1,.04-.2,.07-.3,.1-.11,.03-.21,.05-.32,.08-.11,.03-.22,.05-.32,.08-.06,.01-.12,.02-.18,.03-.07,.01-.14,.02-.21,.04-.19,.05-.38,.09-.57,.14Z"/>
      <path class="cls-1" d="M100.76,51.02c-1.47,.12-2.67,1.03-3.21,2.44l-.05,.14c-.04,.1-.07,.19-.11,.29-.1,.31-.07,.99-.06,1.21,.15,1.93,1.81,3.45,3.69,3.46,.1,0,.2,0,.3-.01,.07,0,.13-.02,.2-.04,.04-.01,.08-.02,.12-.03,.16-.01,.31-.04,.49-.09h0c1.63-.48,2.76-2.15,2.62-3.88-.08-1-.53-1.92-1.27-2.57-.75-.67-1.72-.99-2.73-.92Zm1.91,1.86c.5,.44,.81,1.04,.86,1.71,.11,1.37-.91,2.57-2.27,2.68-.66,.05-1.3-.15-1.82-.58-.52-.43-.83-1.02-.88-1.66-.05-.67,.15-1.33,.57-1.85,.43-.53,1.03-.85,1.71-.9,.67-.05,1.32,.16,1.83,.6Z"/>
      <path class="cls-1" d="M103.91,67.43c-.13-.04-.33-.04-.5-.04-.17-.01-.33,0-.49,0-.15,0-.3,0-.45-.01-.2,0-.41-.01-.6-.02-.77-.03-1.48-.05-2.19-.05-.36-.01-.73-.02-1.09-.03-.39-.01-.78-.02-1.15-.04h-.15c-.05-.02-.09-.02-.14,0-.1,0-.24,.05-.31,.2-.03,.05-.05,.1-.07,.15-.02,.04-.04,.08-.05,.11-.02,.03-.04,.06-.06,.1-.02,.04-.03,.07-.04,.1-.03,.08-.04,.17-.06,.25-.02,.07-.03,.15-.05,.22l-.2,.62c-.04,.13,0,.26,.12,.37,.09,.08,.19,.14,.26,.16,.09,.03,.19,.08,.28,.14,.04,.02,.08,.04,.12,.07,.05,.03,.1,.06,.16,.09l.38,.22c.8,.45,1.63,.91,2.4,1.46h-.03c-.11-.02-.23-.04-.34-.05-.44-.03-.88-.08-1.33-.12-.51-.05-1.03-.1-1.53-.13-.07,0-.18-.02-.31-.03h-.17c-.19-.02-.35-.02-.43,0h-.04c-.16,.07-.26,.17-.31,.32-.02,.06-.03,.13-.05,.2-.01,.06-.02,.11-.04,.16-.07,.22-.15,.4-.25,.61l-.08,.25h.02c-.02,.11,0,.22,.03,.3,.04,.08,.11,.13,.19,.16,.1,.03,.48,.28,.66,.39,.27,.2,.57,.4,.71,.49,.49,.32,.97,.65,1.46,.97,.79,.53,1.59,1.06,2.38,1.58l.08,.06s.07,.05,.1,.07c.07,.06,.14,.1,.23,.13,.02,0,.04,.01,.07,.01,.04,0,.08,0,.13-.03,.22-.12,.45-.57,.48-.68,.04-.13,.03-.23-.04-.33l-.05-.05s-.05-.04-.06-.05c-.05-.04-.1-.07-.14-.09l-3.29-2.19-1.05-.71c-.06-.04-.12-.08-.17-.12-.08-.05-.16-.11-.24-.17,.44,.05,.88,.09,1.32,.13,.31,.03,.63,.06,.94,.09,.28,.03,.56,.05,.83,.07,.28,.02,.55,.04,.83,.07,.26,.03,.51,.05,.77,.07,.25,.02,.51,.04,.75,.07,.1,.02,.19,.02,.29,.01,.18-.03,.32-.14,.36-.29,.04-.11,.06-.23,.09-.35,.03-.11,.06-.22,.09-.33,.09-.27,.01-.45-.24-.59-.03-.02-.06-.04-.09-.05h-.01s-.09-.08-.14-.11l-1.26-.72c-.1-.06-.2-.11-.3-.16-.12-.06-.24-.13-.36-.2-.39-.22-.79-.44-1.2-.67-.15-.08-.3-.17-.45-.25-.37-.21-.76-.43-1.15-.62,.01-.03,.04-.06,.09-.11,.16,0,.34,0,.52,.01,.08,0,.17,0,.24,.01,.42,.02,.84,.03,1.26,.03l2.98,.08c.27,.01,.53,.02,.79,.02h.15s.08,0,.13,0l.06-.02s-.04,.01-.04,.01v-.16s0,0,0,0l.05,.15h0s.05,0,.05,0l.04-.04s.09-.1,.12-.19c.03-.1,.16-.85-.22-.98Z"/>
      <path class="cls-1" d="M98.82,80.28l-.07-.07c-.08-.07-.16-.13-.23-.22-.11-.11-.2-.23-.3-.36l-.12-.15c-.77-.88-1.38-1.6-1.92-2.26-.03-.03-.1-.12-.2-.23-.18-.21-.46-.53-.73-.83-.24-.28-.81-.94-.89-.99-.16-.09-.3,0-.36,.03,0,0-.48,.42-.51,.47-.07,.12-.06,.25,.01,.35l.07,.11s.04,.05,.06,.07c.01,.01,.02,.02,.04,.05l.87,1.04v.02c-.29,.52-.6,1.03-.91,1.55-.32,.53-.63,1.06-.95,1.6-.02,.03-.04,.06-.05,.09,0,0-.01,0-.02,0-.03,0-.07-.02-.09-.02-.2-.05-.42-.08-.63-.1-.08-.01-.16-.03-.24-.04-.15-.03-.29-.06-.48-.08-.02,0-.05-.01-.06,0-.14-.01-.27,.05-.34,.17-.07,.11-.16,.61-.14,.74v.05c0,.1,.07,.17,.1,.2l.04,.05h.07s.05,.01,.05,.01c.06,.02,.1,.03,.15,.04,1.5,.26,2.82,.49,4.06,.68,.51,.08,1.02,.17,1.52,.26l.49,.09s.07,.01,.11,.02c.02,0,.05,0,.08,.02,.05,.02,.09,.04,.15,.07,.03,.02,.06,.03,.08,.03h0s.08,.02,.12,.02c.07,0,.13-.02,.2-.08,.12-.07,.49-.7,.6-.88l.53-.89c.08-.14,.08-.29-.01-.42-.05-.06-.1-.12-.15-.18Zm-1.24,.53l-.3,.51c-.18-.01-.79-.11-1.29-.2l-.28-.04c-.73-.13-1.5-.26-1.77-.31l1.47-2.49,1.8,2.12s.07,.08,.11,.11c.03,.03,.06,.06,.1,.1,.06,.07,.11,.13,.16,.19Zm-6.66-.26h0Z"/>
      <path class="cls-1" d="M93.71,87.55s-.07-.06-.11-.08c-.04-.03-.1-.07-.13-.1-.06-.05-.1-.11-.15-.16-.05-.06-.11-.12-.17-.17l-.09-.08c-.35-.35-.71-.69-1.07-1.04-.07-.07-.14-.14-.21-.22-.07-.08-.15-.16-.22-.23-.31-.3-.63-.61-.94-.92-.41-.41-.82-.82-1.24-1.21l-.06-.05s-.06-.05-.05-.03l-.07-.04c-.15-.04-.27,0-.38,.11-.03,.03-.07,.06-.11,.09-.05,.04-.1,.08-.14,.12-.11,.12-.23,.24-.35,.37-.13,.13-.25,.26-.37,.39l-.77,.82c-.15,.16-.29,.31-.42,.49-.12,.18-.22,.31-.34,.43-.3,.34-.41,.73-.49,1.07l-.04,.11c-.01,.05-.02,.09-.03,.15-.02,.57,.16,1.06,.53,1.41h0c.47,.45,1.24,.67,1.83,.53l.13-.02s.09-.02,.13-.02c-.03,.5,.17,1,.53,1.35,.32,.31,.74,.47,1.2,.47,.13,0,.26-.01,.4-.04,.54-.1,1.08-.39,1.47-.8,.08-.09,.16-.18,.24-.28,.07-.09,.15-.18,.22-.26,.18-.19,.36-.39,.54-.58,.17-.18,.34-.37,.52-.55,.13-.14,.27-.28,.37-.47,.1-.17,.13-.3-.05-.47l-.1-.1Zm-3.36-1.26c-.05,.05-.1,.1-.16,.16-.17,.18-.32,.35-.48,.53-.16,.18-.31,.35-.48,.52-.39,.41-1.49,.89-2.02,.38-.48-.45-.03-1.12,.43-1.61,.25-.26,.5-.53,.75-.79,.23-.24,.45-.47,.68-.71,.14,.13,.28,.28,.4,.42,.08,.09,.16,.17,.24,.24,.13,.13,.26,.25,.4,.38,.12,.11,.23,.23,.35,.34-.04,.04-.08,.08-.12,.12Zm-.7,2.79c.07-.24,.22-.47,.35-.6,.02-.02,.04-.04,.06-.06,.03-.03,.06-.05,.08-.08,.09-.1,.18-.2,.27-.3,.09-.1,.18-.2,.27-.3l.67-.71c.34,.32,.68,.65,1.01,.98l-1.28,1.35s-.06,.07-.09,.11c-.02,.02-.03,.05-.05,.07-.15,.16-.44,.28-.7,.29-.14,0-.33-.02-.47-.15-.16-.15-.2-.35-.13-.6Z"/>
      <path class="cls-1" d="M86.86,93.74c-.07-.08-.15-.16-.21-.24-.07-.08-.13-.17-.19-.26-.07-.09-.14-.18-.21-.27-.04-.05-.07-.1-.1-.15-.04-.06-.07-.12-.12-.18-.13-.16-.25-.32-.37-.49-.11-.15-.23-.3-.34-.45l-.03-.06c-.05-.1-.13-.21-.19-.29l-.22-.28c-.06-.07-.12-.15-.18-.22-.14-.18-.28-.35-.4-.54-.13-.2-.26-.4-.41-.59l-.54-.7c-.12-.15-.31-.17-.47-.04l-.44,.35c-.22,.17-.11,.41-.07,.47,.03,.08,.08,.15,.12,.21,.1,.13,.2,.26,.3,.39,.19,.25,.39,.51,.57,.77,.18,.26,.37,.51,.56,.76,.14,.18,.28,.37,.41,.56,.12,.17,.25,.34,.38,.51,.19,.25,.38,.5,.55,.76,.1,.15,.21,.29,.32,.42l.1,.13c.08,.1,.16,.21,.23,.31,.08,.11,.16,.21,.24,.31,.09,.12,.26,.2,.41,.2,.08,0,.16-.02,.23-.07,.03-.02,.05-.05,.07-.07l.13-.2c.07-.1,.16-.2,.22-.33,.07-.17-.03-.33-.11-.43-.08-.1-.16-.19-.24-.28Zm-3.88-4.62h0s0,0,0,0Z"/>
      <path class="cls-1" d="M74.99,97.32l-.1,.02c-.16,.04-.32,.08-.47,.1-.27,.05-.55,.06-.83,.07h-.26c-.06,.02-.14,.03-.25,0-.08,0-.16-.02-.26-.03-.18-.02-.39-.19-.46-.37-.09-.24,0-.49,.28-.76,.26-.25,.62-.45,.88-.55,.32-.13,.95-.28,1.32-.21,.37,.09,.64,.2,.9,.35,.06,.03,.17,.09,.31,.15,.21,.07,.3,.05,.35,.03,.19-.08,.49-.77,.42-.95-.03-.08-.11-.14-.27-.23l-.11-.05c-.07-.03-.13-.06-.19-.09-.93-.51-2.01-.58-2.98-.18-.78,.32-1.73,.81-2.1,1.78-.15,.41-.15,.83,0,1.18,.55,1.35,1.97,1.22,2.91,1.14,.21-.02,.42-.04,.63-.09l.15-.04c.24-.06,.61-.14,.96-.17,.5-.05,.79,.05,.89,.28,.19,.47-.21,1.21-.63,1.38-.61,.25-.98,.4-1.65,.16-.16-.06-.3-.12-.44-.23-.13-.11-.29-.2-.53-.1-.12,.05-.27,.11-.39,.17-.18,.09-.24,.15-.24,.37,.02,.19,.07,.35,.14,.53,.03,.07,.06,.14,.09,.2,.03,.07,.06,.14,.09,.22,.06,.16,.12,.32,.18,.48,.06,.16,.12,.32,.18,.47,.08,.18,.21,.29,.36,.29,.05,0,.1,0,.15-.03,.19-.08,.34-.14,.45-.19,.12-.06,.18-.13,.21-.18l.03-.06c.01-.06,0-.14-.02-.28-.03-.1-.07-.2-.13-.35,.57,.1,1.09,.02,1.75-.25,.51-.21,.84-.36,1.18-.87,.51-.68,.66-1.52,.38-2.19-.27-.67-.99-1.36-2.87-.91Z"/>
      <path class="cls-1" d="M68.07,96.42s-.62-.1-.68-.1c-.14,.02-.23,.11-.26,.23l-.04,.13s-.01,.06-.02,.09c0,.02,0,.03-.01,.07l-.24,1.33v.02c-.61,.09-1.2,.19-1.79,.28-.61,.09-1.22,.19-1.84,.29-.04,0-.07,.01-.1,.02,0,0,0-.01,0-.02-.01-.03-.03-.06-.04-.08-.09-.18-.21-.37-.32-.55-.04-.07-.08-.15-.12-.22-.07-.13-.14-.26-.24-.41,0-.02-.02-.05-.03-.05-.07-.12-.21-.18-.35-.16-.13,.02-.57,.27-.66,.36l-.03,.04c-.08,.06-.09,.15-.1,.19l-.02,.06,.05,.05,.02,.05c.02,.06,.04,.1,.06,.14,.75,1.32,1.43,2.49,2.07,3.56,.26,.43,.5,.87,.75,1.3l.27,.47s.04,.06,.06,.09c.01,.02,.03,.04,.03,.03v.05c.03,.05,.04,.09,.05,.15,0,.03,.01,.07,.03,.09,.05,.11,.11,.19,.25,.21,.02,0,.05,0,.09,0,.27,0,.94-.11,.97-.11l1.02-.16c.16-.03,.28-.13,.32-.28,.02-.08,.03-.16,.04-.24v-.1c.01-.1,.02-.2,.04-.31,.02-.16,.05-.31,.09-.46l.04-.19c.19-1.18,.35-2.08,.51-2.92,0-.05,.02-.15,.05-.3,.05-.28,.11-.69,.17-1.09,.06-.36,.21-1.22,.2-1.31-.03-.18-.19-.24-.26-.26Zm-1.48,3.05l-.48,2.74c0,.05-.01,.11-.02,.16,0,.04,0,.09-.02,.14,0,.09-.03,.17-.05,.24l-.58,.09c-.1-.15-.43-.7-.69-1.15l-.13-.21c-.36-.65-.76-1.32-.89-1.56l2.86-.46Zm-4.61-2.01h0s0,0,0,0Z"/>
      <path class="cls-1" d="M58.87,97.88l-.02-.04c-.06-.14-.16-.21-.33-.22-.05,0-.1-.01-.14-.02-.06-.01-.12-.02-.19-.03-.17-.01-.34-.02-.52-.04-.18-.01-.35-.03-.52-.04l-1.12-.07c-.22-.01-.42-.03-.65,0-.21,.02-.38,.03-.54,.01-.35,0-.69,.08-1.14,.31-.01,0-.03,0-.06,.02l-.05,.02s-.08,.04-.14,.07c-.45,.34-.71,.8-.74,1.31h0c-.04,.65,.28,1.38,.76,1.75l.1,.08s.07,.06,.1,.09c-.4,.3-.66,.77-.69,1.27-.04,.57,.21,1.1,.68,1.5,.42,.35,.99,.58,1.56,.61,.12,0,.24,0,.37,0,.12,0,.23,0,.34,0,.26,.02,.52,.03,.77,.04,.25,.01,.51,.03,.77,.04,.09,0,.18,.01,.27,.01,.11,0,.22,0,.33-.03,.19-.03,.32-.09,.33-.34v-.14s.01-.09,0-.14c0-.05-.01-.12,0-.17,0-.08,.01-.15,.02-.22,.01-.08,.02-.16,.03-.24,.04-.53,.09-1.06,.12-1.6,0-.1,.02-.2,.03-.3,.01-.11,.03-.22,.04-.32,.03-.43,.07-.87,.11-1.3,.05-.58,.1-1.16,.14-1.73v-.08s0-.07,0-.06v-.04Zm-3.3,2.72c-.26-.02-.68-.15-1.04-.41-.21-.15-.57-.47-.54-.9,.04-.57,.66-.71,1.27-.71,.08,0,.16,0,.24,0,.35,.02,.71,.05,1.06,.07,.33,.02,.67,.05,1,.07-.01,.19-.04,.39-.07,.57-.02,.12-.03,.23-.03,.34-.01,.18-.02,.36-.04,.53-.01,.17-.03,.34-.04,.51-.06,0-.11,0-.17-.02-.07,0-.15-.01-.22-.02-.24-.02-.48-.02-.72-.03-.23,0-.47-.01-.71-.03Zm-.27,1.21s.05,0,.08,.01c.04,0,.08,.01,.11,.01,.14,0,.27,.01,.41,.02,.13,0,.27,0,.4,.02l.97,.06c-.03,.46-.07,.92-.11,1.38v.03s-1.86-.12-1.86-.12c-.01,0-.03,0-.04,0-.04,0-.07,0-.1,0-.03,0-.06,0-.08,0-.22-.01-.5-.16-.67-.36-.09-.1-.2-.26-.18-.46,.03-.54,.78-.61,1.06-.6Z"/>
      <path class="cls-1" d="M50.35,96.67l-.55-.12c-.27-.06-.38,.18-.4,.24-.05,.08-.06,.16-.08,.23-.04,.16-.07,.32-.11,.48-.07,.31-.14,.63-.23,.93-.08,.3-.16,.61-.23,.92-.05,.23-.11,.45-.16,.68-.05,.21-.1,.41-.15,.62-.07,.3-.14,.61-.23,.9-.05,.17-.09,.34-.12,.51l-.04,.17c-.03,.13-.06,.25-.09,.38-.03,.13-.06,.26-.09,.38-.05,.22,.08,.52,.31,.57,.03,0,.05,0,.08,0,0,0,.02,0,.03,0l.23-.03c.12,0,.26,0,.4-.05,.18-.06,.23-.23,.26-.36,.03-.12,.04-.24,.06-.36,.01-.11,.03-.21,.05-.31,.02-.1,.05-.21,.07-.31,.03-.11,.05-.22,.08-.34,.01-.06,.03-.11,.05-.17,.02-.07,.05-.14,.06-.21,.04-.19,.09-.38,.13-.57,.04-.18,.09-.37,.13-.56l.02-.06c.05-.11,.09-.25,.11-.35l.08-.34c.02-.09,.04-.18,.06-.28,.05-.22,.09-.44,.16-.65,.07-.23,.14-.46,.19-.7l.19-.86c.02-.09,0-.18-.05-.26-.05-.07-.12-.11-.22-.13Z"/>
      <path class="cls-1" d="M41.69,95.47c-.02-.07-.04-.14-.05-.21-.2-1.04-.84-1.92-1.76-2.42-.75-.4-1.72-.82-2.71-.48-.41,.15-.74,.42-.92,.75-.69,1.28,.31,2.3,.97,2.97,.14,.15,.3,.3,.47,.43l.13,.1c.2,.15,.5,.38,.74,.62,.35,.35,.47,.64,.35,.87-.24,.44-1.06,.61-1.47,.4-.63-.34-.95-.53-1.18-1.16-.06-.16-.09-.31-.1-.49,0-.17-.03-.35-.27-.48-.12-.06-.25-.13-.36-.18-.2-.09-.28-.08-.44,.05-.13,.13-.22,.27-.32,.44-.04,.07-.07,.14-.1,.21-.03,.07-.07,.14-.1,.21-.08,.15-.16,.3-.25,.44-.09,.15-.17,.3-.25,.44-.12,.23-.07,.45,.16,.58,.17,.09,.31,.16,.41,.21,.13,.05,.22,.05,.28,.05l.06-.02c.06-.03,.12-.09,.2-.19,.05-.08,.11-.18,.19-.32,.29,.5,.68,.85,1.31,1.19,.4,.22,.7,.36,1.15,.37,.09,0,.18,0,.28-.01,.85-.04,1.59-.47,1.93-1.1,.34-.63,.42-1.63-1.13-2.79l-.09-.07c-.13-.1-.26-.2-.38-.3-.21-.18-.4-.39-.58-.6l-.18-.2s-.1-.1-.15-.19c-.05-.07-.09-.13-.14-.22-.1-.15-.1-.42,0-.59,.12-.22,.38-.32,.76-.27,.36,.04,.74,.2,.98,.33,.31,.17,.83,.55,1,.88,.16,.34,.25,.62,.3,.92,.01,.07,.04,.19,.08,.33,.07,.2,.15,.26,.2,.29,.1,.05,.29,.03,.58-.06,.35-.11,.4-.19,.42-.23,.04-.07,.04-.17,0-.36l-.03-.11Z"/>
      <path class="cls-1" d="M32.75,87.94c-.13-.11-.28-.13-.43-.04-.03,.02-.09,.06-.13,.11l-.08,.1c-.28,.32-.57,.65-.86,.97-.29,.33-.58,.65-.86,.98-.59,.67-1.17,1.35-1.75,2.03-.33-.26-.66-.55-.98-.82l-.75-.64c-.13-.11-.33-.14-.54,.1l-.05,.05s-.09,.09-.11,.14c-.06,.07-.15,.19-.17,.32-.01,.1,0,.25,.17,.39l1,.86c.51,.43,1.02,.86,1.54,1.29,.51,.42,1.01,.84,1.51,1.26,.02,.02,.1,.09,.17,.13l.09,.08,.09,.05s.08,.02,.13,.02c.11,0,.21-.04,.28-.12,.02-.03,.04-.05,.06-.08,.01-.02,.03-.04,.05-.07h0c.13-.15,.23-.27,.25-.41,.03-.19-.09-.33-.21-.43-.26-.22-.52-.44-.78-.66-.26-.22-.51-.43-.77-.65,.65-.76,1.32-1.54,2-2.29,.31-.34,.62-.69,.92-1.04l.69-.81c.12-.14,.09-.36-.07-.49l-.4-.34Z"/>
      <path class="cls-1" d="M27.17,85.5c.47-.47,.68-1.27,.67-1.87-.02-.68-.55-1.48-.86-1.9-.98-1.31-2.5-1.65-3.97-.89-.1,.05-.21,.1-.3,.17l-1.01,.76c-.26,.2-.52,.4-.78,.61-.27,.21-.53,.42-.8,.62-.04,.03-.09,.06-.13,.09-.05,.03-.1,.07-.14,.1-.09,.07-.18,.14-.25,.21-.13,.14-.15,.26-.05,.44,.04,.07,.09,.14,.14,.2l.11,.15c.05,.06,.1,.11,.15,.14,.07,.06,.27,.17,.54-.03l.49-.37c.21-.16,.42-.33,.62-.49,.2-.16,.4-.33,.61-.49,.11-.08,.23-.17,.34-.25,.12-.09,.24-.18,.36-.26,.02-.02,.05-.03,.08-.05,.05-.02,.1-.05,.14-.08,.1-.08,.2-.15,.33-.23,.1-.08,.2-.13,.32-.2,1.1-.51,1.86,.08,2.3,.67,.26,.35,.55,.8,.48,1.26-.07,.44-.16,.68-.53,.95l-.15,.11c-.06,.05-.12,.1-.17,.15-.05,.05-.09,.09-.14,.13-.42,.31-.85,.64-1.27,.96l-.2,.17c-.13,.11-.25,.21-.39,.31l-.23,.17c-.13,.09-.32,.24-.49,.37-.13,.1-.26,.19-.36,.28l-.05,.04s-.05,.05-.09,.09l-.04,.03-.02,.05c-.04,.11,.02,.23,.09,.35l.19,.25c.11,.15,.21,.27,.36,.29,.01,0,.03,0,.04,0,.12,0,.23-.07,.34-.15,.38-.28,.75-.56,1.12-.85,.06-.05,.12-.1,.18-.14,.05-.04,.1-.09,.16-.13,.29-.22,.57-.44,.86-.66,.26-.2,.53-.4,.79-.61,.19-.14,.36-.29,.58-.5Z"/>
      <path class="cls-1" d="M22.02,78.18l-.05-.15h0l.07,.15,1.56-.7c.13-.06,.21-.17,.2-.26,.01-.07-.01-.18-.06-.32-.04-.14-.09-.26-.12-.32-.13-.3-.27-.6-.4-.89-.13-.3-.27-.6-.4-.9-.13-.28-.28-.59-.49-.85-1.09-1.31-3.02-1.75-4.58-1.05-1.46,.66-2.24,2.17-1.87,3.61,.1,.42,.26,.82,.42,1.22,.05,.12,.09,.24,.14,.36,.05,.14,.11,.28,.16,.41,.11,.28,.22,.58,.35,.86l.09,.21c.05,.11,.1,.21,.19,.35,.1,.09,.21,.14,.33,.14,.05,0,.1,0,.14-.02,.06,0,.12-.03,.17-.05l.33-.14c.36-.15,.71-.31,1.06-.47,.56-.25,1.13-.51,1.71-.73,.35-.14,.7-.3,1.04-.45Zm.27-1.51l-.91,.41c-.29,.13-.59,.25-.88,.37-.3,.12-.6,.24-.89,.37l-.57,.25c-.11,.05-.23,.1-.34,.15-.12,.05-.23,.1-.35,.15l-.11,.05c-.1,.05-.21,.1-.31,.13l-.04-.06-.03-.11s0-.01,0-.02v-.05s-.03-.06-.04-.08v-.05c-.2-.49-.37-.91-.54-1.29-.27-.59-.32-1.17-.16-1.66,.17-.51,.57-.92,1.17-1.19,.78-.35,1.81-.26,2.57,.23,.2,.13,.53,.42,.63,.63l.8,1.77Z"/>
      <path class="cls-1" d="M16.57,70.04c.17-.04,.34-.09,.52-.13h0s.07-.01,.07-.01c.12,0,.27-.03,.37-.06l.34-.09c.09-.02,.18-.05,.27-.08,.22-.06,.43-.12,.66-.16,.23-.04,.47-.09,.71-.15l.85-.23c.08-.02,.15-.07,.2-.15,.04-.08,.05-.17,.03-.27l-.15-.54c-.07-.27-.33-.25-.4-.25-.08,0-.16,.01-.24,.03-.16,.04-.32,.08-.48,.12-.31,.08-.62,.16-.93,.22-.31,.06-.61,.14-.92,.22-.23,.06-.45,.11-.68,.17-.21,.05-.41,.1-.62,.15-.3,.08-.61,.16-.91,.21-.18,.03-.34,.08-.51,.13l-.16,.04c-.12,.03-.25,.06-.37,.1-.13,.03-.26,.06-.39,.1-.13,.03-.25,.13-.32,.25-.06,.09-.07,.2-.05,.28,.01,.04,.03,.07,.06,.13l.12,.16c.06,.11,.12,.23,.22,.33,.07,.07,.16,.1,.25,.1,.07,0,.14-.01,.19-.03,.12-.03,.23-.07,.35-.11,.1-.04,.2-.07,.3-.1,.1-.03,.2-.05,.31-.08,.11-.03,.23-.05,.34-.08,.06-.01,.12-.02,.17-.03,.07-.01,.14-.02,.21-.04,.2-.05,.39-.1,.59-.15Zm.53-.28v-.03s0,.02,0,.02h0Z"/>
      <path class="cls-1" d="M16.21,65.75c1.47-.13,2.66-1.05,3.19-2.47l.05-.15c.03-.09,.07-.19,.1-.29,.1-.31,.07-.99,.05-1.21-.18-2.03-2.02-3.59-4.02-3.42-.07,0-.13,.02-.19,.04-.04,.01-.08,.02-.12,.03-.15,.01-.31,.04-.49,.1h0c-1.63,.5-2.74,2.17-2.59,3.9,.17,1.97,1.79,3.46,3.68,3.47,.11,0,.23,0,.34-.01Zm-.09-1.25c-.68,.06-1.32-.15-1.83-.59-.51-.43-.82-1.04-.87-1.7-.12-1.37,.89-2.58,2.25-2.69,.08,0,.16-.01,.24,0,.57,0,1.13,.2,1.58,.57,.52,.42,.84,1.01,.89,1.66,.12,1.41-.89,2.65-2.26,2.77Z"/>
    </g>
    <g>
      <path class="cls-1" d="M55.69,74.92l.55,.05h1.84c.22-.08,.37-.23,.46-.44,.03-.24-.01-.44-.13-.6-.4-.22-.85-.31-1.35-.29-.51,.03-.99,0-1.45-.06l-.04-.37v-1.19s2.35-.07,2.35-.07c.22-.09,.37-.24,.46-.46v-.37c-.09-.22-.24-.37-.45-.46h-1.88s-.05,.03-.05,.03h-.51s-.08-1.57-.08-1.57c-.09-.22-.24-.37-.46-.46h-.37c-.22,.09-.37,.24-.46,.45l.15,4.14v.32s-2.02-.01-2.02-.01l-.18,.04c-.23,.09-.39,.24-.49,.46v.37c.09,.22,.25,.37,.48,.46l2.3,.02,.04,.69-.02,2.82-.05,.51-.37-.19h-.41c-.22,.09-.37,.24-.46,.45-.03,.24,.01,.44,.13,.6,.49,.49,1.02,.91,1.6,1.25l.46-.18c.22-.34,.33-.72,.35-1.15,.02-.43,.04-.86,.08-1.29l.02-2.82-.05-.05v-.64Z"/>
      <path class="cls-1" d="M57.01,76.12h-.37c-.22,.09-.37,.24-.46,.45,.09,.46,.28,.89,.59,1.28,.3,.39,.58,.79,.82,1.19l.32,.19h.37c.22-.09,.37-.24,.46-.45v-.37c-.27-.4-.53-.8-.79-1.21s-.57-.77-.93-1.07Z"/>
      <path class="cls-1" d="M64.3,78.13c-.47-.25-.93-.57-1.37-.95,.34-.67,.66-1.37,.95-2.08,.29-.72,.5-1.46,.62-2.22,.06-.31,.02-.58-.13-.83-.3-.28-.66-.4-1.08-.38l-3.26-.02c-.21,.09-.37,.24-.46,.46-.03,.24,.01,.44,.13,.6l.5,.28,2.89,.02c-.13,.55-.29,1.09-.49,1.6-.2,.52-.43,1.02-.68,1.51-.4-.34-.75-.73-1.07-1.16-.32-.43-.68-.82-1.07-1.16h-.37c-.22,.09-.37,.24-.46,.45,.15,.58,.44,1.11,.86,1.57,.43,.46,.84,.92,1.23,1.39l-.23,.46c-.43,.47-.91,.86-1.43,1.16-.25,.12-.43,.3-.56,.55-.03,.24,.01,.44,.13,.6l.5,.28,.28-.04c.43-.24,.85-.53,1.25-.86s.76-.7,1.06-1.09c.46,.37,.94,.7,1.45,.98,.51,.28,1.03,.54,1.54,.79l.32-.04c.22-.09,.37-.24,.46-.46,.03-.24-.01-.44-.13-.6-.46-.28-.92-.54-1.4-.79Z"/>
      <path class="cls-1" d="M53.29,76.42c-.09-.22-.24-.37-.46-.46-.24-.03-.44,.01-.6,.13-.22,.37-.4,.76-.55,1.18s-.35,.8-.59,1.13v.37c.09,.22,.24,.37,.45,.46,.26,.03,.47-.01,.62-.13,.31-.3,.54-.66,.7-1.06,.16-.4,.3-.81,.42-1.2v-.41Z"/>
      <path class="cls-1" d="M63.83,69.51c.09,.22,.24,.37,.46,.46,.24,.03,.44-.01,.6-.13,.25-.58,.36-1.21,.34-1.88,.07-.61,0-1.18-.22-1.7-.7-.33-1.47-.51-2.3-.55s-1.65-.09-2.44-.16h-1.93s.02-2.31,.02-2.31c-.09-.22-.24-.37-.46-.46-.24-.03-.44,.01-.6,.13l-.28,.5-.02,2.16c-.92,0-1.84,.02-2.76,.07s-1.82,.18-2.69,.37c-.25,.34-.36,.73-.33,1.19l.04,1.15-.05,.18,.09,.6c.09,.22,.24,.37,.46,.46h.39c.22-.09,.37-.24,.46-.45l-.04-.96,.05-1.01c.74-.09,1.49-.15,2.25-.19,.77-.04,1.53-.07,2.3-.1l3.08,.02c.61,.04,1.22,.08,1.84,.13,.61,.05,1.22,.12,1.81,.22l-.1,1.7,.04,.55Z"/>
      <g>
        <path class="cls-1" d="M55.55,36.13h0s-.03-.04-.04-.06c.01,.02,.03,.03,.04,.06Z"/>
        <polygon class="cls-1" points="62.45 45.46 64.24 45.47 64.27 45.44 64.24 45.47 62.45 45.46 62.45 45.46"/>
        <path class="cls-1" d="M65.03,41.07h0s-.03-.04-.04-.06c.01,.02,.03,.03,.04,.06Z"/>
        <path class="cls-1" d="M58.84,26.14c-17.71-.13-32.17,14.12-32.3,31.83l64.13,.47c.13-17.71-14.12-32.17-31.83-32.3Zm-2.8,9.99v.41s0,.09,0,.09l-.04,.09c-.31,.75-.61,1.52-.91,2.29-.27,.71-.57,1.43-.89,2.14l.11,.27,.03,.09v.09s-.01,1.77-.01,1.77l.05,.05v.2s-.04,4.94-.04,4.94l.08,1.98c.07,.63-.1,1.17-.5,1.6l-.03,.03-.03,.02c-.21,.17-.47,.25-.78,.25-.07,0-.13,0-.21-.01h-.07s-.06-.04-.06-.04c-.33-.14-.57-.39-.71-.72l-.04-.09v-.1s0-.37,0-.37v-.03s0-.03,0-.03l.09-.79-.08-1.71,.03-4.02c-.06,.09-.13,.19-.19,.28-.32,.5-.72,.95-1.18,1.34l-.14,.12h-.18s-.37,0-.37,0h-.1s-.09-.04-.09-.04c-.33-.14-.57-.39-.71-.72l-.04-.09v-.1s0-.37,0-.37v-.17s.11-.13,.11-.13c1.08-1.34,2.01-2.79,2.76-4.32,.76-1.55,1.48-3.15,2.12-4.73l.05-.12,.1-.08c.21-.17,.47-.25,.76-.25,.06,0,.13,0,.2,.01h.07s.06,.04,.06,.04c.33,.14,.57,.39,.71,.72l.04,.09v.1Zm11.85,13.18l-.02,2.14v.11s-.05,.1-.05,.1c-.17,.34-.43,.59-.77,.76l-.08,.04h-.09s-1.65,.13-1.65,.13h-.06s-.06,0-.06,0c-.63-.1-1.26-.21-1.86-.34-.68-.15-1.29-.47-1.81-.96h-.02s-.01-.03-.01-.03c-.33-.37-.55-.8-.65-1.29-.09-.43-.16-.86-.19-1.28v-.02s0-.02,0-.02v-1.35s-2.86-.02-2.86-.02h-.1s-.09-.04-.09-.04c-.33-.14-.57-.39-.71-.72l-.04-.09v-.1s0-.37,0-.37v-.1s.04-.09,.04-.09c.14-.33,.39-.57,.72-.71h.04s.04-.02,.04-.02l.18-.04h.06s.06-.01,.06-.01l2.73,.02v-1.39c-.44,.07-.91,.12-1.41,.14h-.11s-.1-.04-.1-.04c-.33-.14-.57-.39-.71-.72l-.04-.09v-.1s0-.37,0-.37v-.19s.13-.14,.13-.14l.46-.5,.14-.15h.21c.91-.03,1.8-.15,2.65-.38,.86-.23,1.7-.54,2.5-.92l.19-.09,.2,.08c.35,.14,.6,.39,.74,.72l.04,.09v.1s0,.37,0,.37v.18s-.12,.13-.12,.13c-.47,.55-1.02,.95-1.68,1.19l-.73,.22-.04,.26v1.54s1.09,0,1.09,0l.05-.05h.2s1.86,.01,1.86,.01h.1s.09,.04,.09,.04c.33,.14,.57,.39,.71,.72l.04,.09v.1s0,.37,0,.37v.1s-.04,.09-.04,.09c-.14,.33-.39,.57-.72,.71l-.08,.03h-.09s-3.24,.1-3.24,.1l-.04,1.26c-.03,.46,.08,.84,.33,1.18,.39,.2,.81,.34,1.27,.42,.35,.06,.72,.1,1.09,.1,0-.55,.13-1.06,.38-1.52l.05-.09,.08-.06c.21-.17,.47-.25,.76-.25,.06,0,.13,0,.2,.01h.07s.06,.04,.06,.04c.33,.14,.57,.39,.71,.72l.04,.09v.1Zm.11-7.39l-.05,.11-.1,.08c-.21,.17-.47,.25-.76,.25-.06,0-.13,0-.2-.01h-.07s-.06-.04-.06-.04c-.33-.14-.57-.39-.71-.72l-.03-.07v-.07s-.05-.46-.05-.46v-.03s0-.03,0-.03l.04-1.09-1.41-.08-4.3-.03-1.74,.06v1.51s-.01,.1-.01,.1l-.04,.09c-.14,.33-.39,.57-.72,.71l-.09,.04h-.1s-.37,0-.37,0h-.1s-.09-.04-.09-.04c-.33-.14-.57-.39-.71-.72l-.02-.04v-.04s-.05-.18-.05-.18v-.06s-.01-.06-.01-.06v-1.87c-.02-.53,.12-1.03,.43-1.46l.04-.06,.06-.04c.21-.17,.47-.25,.76-.25,.06,0,.13,0,.2,.01l.17,.02,.02,.02h1.7s1.43-.05,1.43-.05c.02-.24,.02-.49,0-.74-.03-.52,.07-1,.3-1.41l.05-.09,.08-.06c.21-.17,.47-.25,.76-.25,.06,0,.13,0,.2,.01h.07s.06,.04,.06,.04c.33,.14,.57,.39,.71,.72l.04,.09v.09s.03,1.61,.03,1.61c.66,.02,1.33,.04,2.01,.04,.93,0,1.79,.19,2.55,.54l.16,.08,.07,.17c.18,.4,.25,.84,.22,1.3,.05,.86-.07,1.65-.38,2.35Z"/>
      </g>
    </g>
    <path class="cls-1" d="M58.04,115.1c-31.37-.23-56.71-25.94-56.48-57.31C1.78,26.42,27.49,1.08,58.86,1.31c31.37,.23,56.71,25.94,56.48,57.31-.23,31.37-25.94,56.71-57.31,56.48Zm.82-112.5C28.2,2.38,3.07,27.14,2.85,57.8s24.54,55.78,55.2,56.01c30.66,.22,55.78-24.54,56.01-55.2,.22-30.66-24.54-55.78-55.2-56.01Z"/>
    <path class="cls-1" d="M58.07,111.22c-29.23-.21-52.84-24.17-52.63-53.4S29.6,4.98,58.84,5.19c29.23,.21,52.84,24.17,52.63,53.4-.21,29.23-24.17,52.84-53.4,52.63Zm.76-104.74C30.31,6.28,6.94,29.31,6.73,57.83c-.21,28.52,22.83,51.89,51.35,52.1,28.52,.21,51.89-22.83,52.1-51.35,.21-28.52-22.83-51.89-51.35-52.1Z"/>
  </g>
  <g>
    <path class="cls-1" d="M35.8,67.96c0,.92,.74,1.68,1.66,1.68h1.8s.01-1.77,.01-1.77c0-.92-.74-1.68-1.66-1.68h-1.8s-.01,1.77-.01,1.77Zm.77,0v-1.01s1.04,0,1.04,0c.5,0,.9,.41,.89,.91v1.01s-1.04,0-1.04,0c-.5,0-.9-.41-.89-.91Z"/>
    <path class="cls-1" d="M43.18,68.02c0,.92-.76,1.67-1.68,1.66h-1.8s.01-1.79,.01-1.79c0-.92,.76-1.67,1.68-1.66h1.8s-.01,1.79-.01,1.79Zm-.77,0v-1.01s-1.02,0-1.02,0c-.5,0-.9,.4-.91,.89v1.01s1.02,0,1.02,0c.5,0,.9-.4,.91-.89Z"/>
    <path class="cls-1" d="M35.78,71.76c0-.92,.76-1.67,1.68-1.66h1.8s-.01,1.79-.01,1.79c0,.92-.76,1.67-1.68,1.66h-1.8s.01-1.79,.01-1.79Zm.77,0v1.01s1.02,0,1.02,0c.5,0,.9-.4,.91-.89v-1.01s-1.02,0-1.02,0c-.5,0-.9,.4-.91,.89Z"/>
    <path class="cls-1" d="M43.15,71.81c0-.92-.74-1.68-1.66-1.68h-1.8s-.01,1.77-.01,1.77c0,.92,.74,1.68,1.66,1.68h1.8s.01-1.77,.01-1.77Zm-.77,0v1.01s-1.04,0-1.04,0c-.5,0-.9-.41-.89-.91v-1.01s1.04,0,1.04,0c.5,0,.9,.41,.89,.91Z"/>
  </g>
  <g>
    <path class="cls-1" d="M74.63,68.25c0,.92,.74,1.68,1.66,1.68h1.8s.01-1.77,.01-1.77c0-.92-.74-1.68-1.66-1.68h-1.8s-.01,1.77-.01,1.77Zm.77,0v-1.01s1.04,0,1.04,0c.5,0,.9,.41,.89,.91v1.01s-1.04,0-1.04,0c-.5,0-.9-.41-.89-.91Z"/>
    <path class="cls-1" d="M82,68.3c0,.92-.76,1.67-1.68,1.66h-1.8s.01-1.79,.01-1.79c0-.92,.76-1.67,1.68-1.66h1.8s-.01,1.79-.01,1.79Zm-.77,0v-1.01s-1.02,0-1.02,0c-.5,0-.9,.4-.91,.89v1.01s1.02,0,1.02,0c.5,0,.9-.4,.91-.89Z"/>
    <path class="cls-1" d="M74.6,72.04c0-.92,.76-1.67,1.68-1.66h1.8s-.01,1.79-.01,1.79c0,.92-.76,1.67-1.68,1.66h-1.8s.01-1.79,.01-1.79Zm.77,0v1.01s1.02,0,1.02,0c.5,0,.9-.4,.91-.89v-1.01s-1.02,0-1.02,0c-.5,0-.9,.4-.91,.89Z"/>
    <path class="cls-1" d="M81.98,72.09c0-.92-.74-1.68-1.66-1.68h-1.8s-.01,1.77-.01,1.77c0,.92,.74,1.68,1.66,1.68h1.8s.01-1.77,.01-1.77Zm-.77,0v1.01s-1.04,0-1.04,0c-.5,0-.9-.41-.89-.91v-1.01s1.04,0,1.04,0c.5,0,.9,.41,.89,.91Z"/>
  </g>
</svg>