<?xml version="1.0" encoding="UTF-8"?>
<svg id="Calque_1" data-name="Calque 1" xmlns="http://www.w3.org/2000/svg" viewBox="0 0 144.51 142.33">
  <defs>
    <style>
      .cls-1 {
        fill: #fff;
      }

      .cls-2 {
        opacity: .5;
      }
    </style>
  </defs>
  <g class="cls-2">
    <g>
      <circle class="cls-1" cx="139.69" cy="46.1" r="2.21"/>
      <circle class="cls-1" cx="139.64" cy="59.82" r="2.21"/>
      <circle class="cls-1" cx="126.14" cy="59.78" r="2.21"/>
      <circle class="cls-1" cx="126.19" cy="46.05" r="2.21"/>
      <circle class="cls-1" cx="112.77" cy="46.01" r="2.21"/>
      <circle class="cls-1" cx="112.72" cy="59.73" r="2.21"/>
      <circle class="cls-1" cx="139.59" cy="73.01" r="2.21"/>
      <circle class="cls-1" cx="126.09" cy="72.96" r="2.21"/>
      <circle class="cls-1" cx="112.68" cy="72.91" r="2.21"/>
    </g>
    <g>
      <circle class="cls-1" cx="139.83" cy="4.59" r="2.21"/>
      <circle class="cls-1" cx="139.78" cy="18.31" r="2.21"/>
      <circle class="cls-1" cx="126.28" cy="18.27" r="2.21"/>
      <circle class="cls-1" cx="126.33" cy="4.54" r="2.21"/>
      <circle class="cls-1" cx="112.91" cy="4.5" r="2.21"/>
      <circle class="cls-1" cx="112.87" cy="18.22" r="2.21"/>
      <circle class="cls-1" cx="139.74" cy="31.5" r="2.21"/>
      <circle class="cls-1" cx="126.24" cy="31.45" r="2.21"/>
      <circle class="cls-1" cx="112.82" cy="31.4" r="2.21"/>
    </g>
    <g>
      <circle class="cls-1" cx="99.52" cy="45.96" r="2.21"/>
      <circle class="cls-1" cx="99.48" cy="59.68" r="2.21"/>
      <circle class="cls-1" cx="85.98" cy="59.64" r="2.21"/>
      <circle class="cls-1" cx="86.02" cy="45.91" r="2.21"/>
      <circle class="cls-1" cx="72.61" cy="45.87" r="2.21"/>
      <circle class="cls-1" cx="72.56" cy="59.59" r="2.21"/>
      <circle class="cls-1" cx="99.43" cy="72.87" r="2.21"/>
      <circle class="cls-1" cx="85.93" cy="72.82" r="2.21"/>
      <circle class="cls-1" cx="72.51" cy="72.77" r="2.21"/>
    </g>
    <g>
      <circle class="cls-1" cx="99.67" cy="4.45" r="2.21"/>
      <circle class="cls-1" cx="99.62" cy="18.17" r="2.21"/>
      <circle class="cls-1" cx="86.12" cy="18.13" r="2.21"/>
      <circle class="cls-1" cx="86.17" cy="4.4" r="2.21"/>
      <circle class="cls-1" cx="72.75" cy="4.36" r="2.21"/>
      <circle class="cls-1" cx="72.7" cy="18.08" r="2.21"/>
      <circle class="cls-1" cx="99.58" cy="31.36" r="2.21"/>
      <circle class="cls-1" cx="86.07" cy="31.31" r="2.21"/>
      <circle class="cls-1" cx="72.66" cy="31.26" r="2.21"/>
    </g>
  </g>
  <g>
    <g>
      <g>
        <path class="cls-1" d="M16.76,64.94c.12,.07,.32,.11,.48,.14,.16,.04,.31,.07,.48,.11,.15,.04,.31,.07,.46,.11,.19,.05,.38,.09,.56,.13,.74,.19,1.44,.35,2.13,.5,.36,.09,.73,.18,1.1,.27,.37,.09,.73,.18,1.08,.26l.15,.05s.03,0,.05,.01c.03,0,.06,0,.09,.01,.1,.01,.24,0,.35-.13,.03-.04,.07-.09,.1-.13,.03-.04,.05-.08,.07-.1,.02-.02,.05-.05,.08-.08,.03-.03,.05-.06,.06-.09,.04-.07,.08-.15,.11-.23,.03-.07,.06-.14,.1-.2l.32-.57c.13-.23-.08-.5-.26-.6-.08-.05-.17-.11-.25-.19-.03-.03-.06-.06-.1-.09-.05-.04-.09-.09-.14-.13l-.33-.29c-.69-.6-1.4-1.22-2.05-1.92h.02c.11,.05,.22,.09,.33,.12,.42,.12,.85,.26,1.27,.39,.48,.15,.99,.31,1.48,.45,.06,.02,.16,.05,.26,.08l.19,.06c.18,.04,.34,.07,.42,.08h.04c.17-.03,.29-.11,.37-.24,.03-.06,.06-.12,.09-.19,.02-.05,.04-.1,.07-.15,.11-.19,.23-.36,.36-.54l.13-.23h-.02c.07-.19,.05-.39-.13-.5-.09-.05-.43-.38-.56-.51-.23-.26-.48-.51-.6-.63-.41-.41-.81-.82-1.21-1.23-.67-.69-1.35-1.38-2.02-2.04l-.07-.08s-.06-.06-.08-.1c-.06-.08-.11-.13-.2-.17-.33-.18-.81,.54-.82,.54-.07,.12-.08,.22-.03,.33l.04,.06s.04,.05,.05,.06c.04,.05,.09,.09,.12,.12l2.77,2.81,.88,.91s.1,.1,.14,.15c.07,.07,.14,.14,.2,.21-.41-.14-.83-.27-1.25-.39-.31-.09-.61-.19-.91-.29-.26-.08-.53-.16-.79-.24-.27-.08-.54-.16-.8-.24-.24-.08-.49-.15-.74-.22-.24-.07-.49-.14-.72-.22-.09-.04-.19-.06-.28-.07-.18,0-.34,.07-.42,.21-.06,.1-.11,.21-.16,.32-.05,.1-.1,.21-.16,.31-.14,.25-.11,.44,.11,.63,.03,.02,.05,.05,.08,.07h.01c.04,.06,.08,.1,.12,.14l1.09,.96c.09,.08,.18,.15,.27,.23,.1,.09,.21,.17,.31,.26,.34,.3,.68,.59,1.03,.91,.13,.11,.26,.22,.39,.34,.32,.28,.65,.57,1,.84-.02,.02-.05,.05-.12,.09-.16-.03-.34-.07-.51-.12-.08-.02-.16-.04-.23-.06-.42-.11-.83-.2-1.26-.29l-2.46-.58-.37-.09c-.27-.07-.54-.14-.81-.19l-.15-.04s-.08-.02-.13-.01h-.05s0,0-.01,0h-.06s-.05,.03-.05,.03c-.05,.03-.11,.08-.15,.16-.05,.09-.34,.8,.01,1Z"/>
        <path class="cls-1" d="M24.39,53.39l.05,.08c.07,.09,.13,.17,.17,.26,.09,.14,.15,.28,.23,.42l.08,.17c.57,1.02,1.02,1.84,1.42,2.61,.02,.04,.08,.14,.16,.28,.14,.25,.34,.61,.54,.95,.18,.32,.6,1.09,.67,1.15,.04,.04,.09,.06,.13,.07,.09,.02,.18-.01,.22-.03,0,0,.56-.31,.6-.35,.09-.1,.11-.23,.06-.35l-.05-.13s-.03-.06-.04-.08c0-.01-.02-.03-.03-.06l-.64-1.19v-.02c.4-.45,.81-.89,1.21-1.33,.42-.45,.84-.91,1.27-1.38,.02-.02,.04-.05,.06-.07,0,0,0,0,.01,0,.03,.02,.06,.03,.08,.04,.18,.08,.39,.16,.59,.23,.08,.03,.15,.06,.23,.09,.14,.06,.28,.12,.45,.17,.02,0,.05,.02,.06,.02,.13,.04,.27,0,.37-.1,.09-.1,.28-.57,.29-.69v-.05c.02-.1-.03-.17-.05-.21l-.03-.06h-.07s-.05-.04-.05-.04c-.05-.03-.1-.05-.13-.07-1.41-.56-2.66-1.06-3.83-1.5-.44-.17-.88-.34-1.31-.52l-.59-.23s-.07-.03-.11-.04c-.02,0-.05-.02-.04,0l-.04-.03s-.08-.06-.12-.09c-.02-.02-.06-.05-.08-.05-.11-.06-.2-.08-.33,0-.12,.05-.58,.53-.77,.74l-.7,.76c-.11,.12-.14,.27-.07,.42,.03,.07,.07,.14,.11,.21Zm1.32-.27l.4-.44c.17,.05,.75,.27,1.23,.46l.26,.1c.69,.28,1.41,.56,1.67,.66l-1.95,2.14-1.33-2.44s-.05-.09-.08-.13c-.02-.04-.05-.08-.08-.12-.05-.08-.08-.15-.11-.22Zm6.46,1.62h0Z"/>
        <path class="cls-1" d="M30.89,47.32s.05,.07,.09,.1c.04,.04,.08,.09,.11,.12,.04,.06,.08,.12,.12,.19,.04,.07,.08,.14,.13,.2,.3,.44,.59,.89,.9,1.33,.06,.08,.11,.17,.16,.26,.06,.09,.11,.19,.17,.27,.25,.36,.49,.73,.73,1.09,.32,.48,.64,.96,.96,1.43l.05,.06s.05,.06,.04,.04l.06,.05s.07,.03,.11,.04c.09,.02,.19,0,.29-.07,.04-.03,.08-.05,.13-.07,.06-.03,.11-.06,.16-.09,.14-.1,.28-.19,.43-.29,.15-.1,.29-.2,.43-.3l.92-.64c.17-.12,.34-.24,.51-.4,.15-.15,.28-.25,.42-.35,.37-.27,.56-.63,.7-.95,0-.01,.02-.03,.03-.05l.03-.05s.04-.09,.06-.14c.14-.55,.06-1.07-.23-1.49-.37-.53-1.08-.91-1.68-.9h-.12s-.09,0-.14,0c.13-.49,.04-1.02-.24-1.43-.69-1-2.13-.92-3.07-.27-.1,.07-.19,.14-.28,.22-.09,.07-.18,.14-.28,.21-.21,.15-.42,.29-.62,.44-.21,.15-.43,.3-.64,.45-.16,.11-.32,.22-.46,.38-.14,.14-.19,.27-.05,.47l.08,.12Zm3.05-1.34s.04-.04,.06-.05c.29-.2,.94-.23,1.18,.11,.31,.44-.25,.98-.46,1.13-.02,.01-.05,.03-.07,.04-.03,.02-.07,.04-.09,.06-.12,.08-.23,.16-.34,.25-.1,.08-.21,.16-.32,.23l-.8,.55c-.27-.39-.53-.78-.79-1.17h0s1.53-1.06,1.53-1.06c.04-.03,.07-.06,.11-.09Zm-.03,3.27c.06-.04,.13-.08,.19-.13,.2-.14,.39-.28,.59-.42,.19-.14,.37-.28,.57-.41,.47-.33,1.64-.57,2.06,.04,.37,.54-.2,1.11-.75,1.49-.3,.21-.6,.41-.9,.62-.27,.18-.54,.37-.81,.56-.11-.16-.21-.33-.3-.49-.06-.11-.12-.19-.19-.29-.11-.16-.21-.31-.32-.46-.09-.13-.18-.26-.27-.4,.05-.03,.09-.06,.14-.09Z"/>
        <path class="cls-1" d="M42.46,47.45c-.01-.09-.05-.17-.08-.23-.07-.15-.14-.3-.21-.45-.14-.29-.28-.58-.4-.87-.12-.29-.26-.58-.39-.86-.1-.21-.2-.42-.29-.63-.09-.19-.18-.38-.27-.57-.13-.28-.27-.57-.39-.85-.07-.17-.14-.32-.22-.48l-.08-.15c-.06-.12-.11-.23-.17-.35-.06-.12-.11-.24-.17-.36-.1-.21-.38-.36-.6-.26-.03,.02-.06,.04-.08,.06l-.16,.16c-.09,.08-.2,.17-.29,.29-.1,.16-.04,.33,.02,.45,.05,.11,.12,.21,.18,.32,.06,.09,.11,.19,.16,.28,.05,.1,.1,.2,.14,.3,.05,.1,.09,.2,.14,.3,.03,.05,.05,.11,.07,.17,.02,.07,.05,.14,.08,.2,.08,.17,.17,.34,.25,.52,.09,.18,.17,.36,.26,.54v.04c.04,.12,.1,.25,.14,.35l.15,.32c.04,.08,.08,.17,.13,.25,.1,.2,.2,.4,.28,.6,.08,.21,.18,.45,.29,.68l.39,.79c.05,.09,.12,.15,.22,.17,.07,.02,.15,0,.23-.03l.51-.25c.25-.12,.19-.38,.17-.44Z"/>
        <path class="cls-1" d="M52.42,40.42c-.2-.03-.42-.05-.63-.04h-.16c-.25,0-.63,.02-.97-.03-.49-.05-.77-.21-.81-.46-.04-.21,.04-.47,.21-.71,.19-.27,.46-.47,.69-.52,.71-.13,1.07-.18,1.65,.18,.15,.09,.27,.18,.38,.32,.1,.13,.24,.26,.53,.21,.13-.02,.27-.05,.39-.08,.2-.05,.27-.1,.31-.32,.02-.19,0-.35-.03-.54-.01-.07-.03-.15-.05-.22-.02-.07-.03-.15-.05-.23-.03-.17-.06-.34-.08-.51-.03-.17-.05-.33-.08-.5-.05-.26-.23-.4-.45-.36-.2,.04-.37,.07-.48,.1-.14,.04-.2,.09-.25,.13l-.03,.05c-.03,.06-.04,.14-.04,.28,.01,.1,.03,.21,.06,.37-.54-.21-1.06-.25-1.77-.12-.54,.1-.89,.18-1.33,.61-.64,.57-.96,1.36-.83,2.07,.13,.71,.69,1.54,2.62,1.48h.09c.16,0,.34-.01,.5,0,.28,.01,.56,.06,.82,.11l.26,.04c.07,0,.14,.01,.24,.06,.08,.02,.15,.05,.24,.09,.17,.06,.34,.27,.38,.46,.11,.62-.97,.96-1.4,1.04-.35,.06-.99,.08-1.33-.06-.33-.16-.58-.33-.81-.53-.05-.04-.15-.12-.27-.21-.19-.11-.28-.11-.33-.1-.2,.04-.64,.65-.6,.85,.02,.08,.08,.16,.22,.28l.09,.07c.06,.04,.12,.09,.16,.13,.46,.39,1,.66,1.57,.78,.43,.09,.88,.1,1.32,.02,.83-.15,1.86-.44,2.42-1.31,.23-.38,.32-.79,.25-1.16-.26-1.43-1.68-1.6-2.61-1.71Z"/>
        <path class="cls-1" d="M63.16,42.61s0,0,0,.01c0,.03,.02,.07,.02,.09,.05,.2,.13,.41,.21,.6,.02,.08,.05,.15,.07,.23,.04,.14,.09,.29,.15,.47,0,.02,.02,.05,.02,.06,.05,.13,.18,.22,.31,.22,.13,0,.62-.15,.72-.22l.04-.03c.1-.04,.12-.14,.13-.17l.03-.05-.04-.06v-.06c-.02-.06-.03-.11-.04-.15-.46-1.44-.88-2.72-1.29-3.91-.16-.46-.31-.92-.45-1.38l-.18-.57s-.02-.07-.04-.1c0-.02-.02-.05-.02-.08,0-.06,0-.1,0-.17,0-.03,0-.07-.01-.09-.02-.12-.07-.21-.2-.26-.12-.07-.84-.11-1.06-.12l-1.03-.05c-.17,0-.3,.07-.37,.21-.04,.07-.06,.14-.09,.22l-.03,.1c-.02,.1-.05,.2-.09,.3-.05,.15-.11,.29-.18,.44l-.08,.17c-.42,1.08-.76,1.95-1.1,2.76-.02,.05-.06,.16-.12,.31-.1,.26-.25,.64-.38,1.01-.14,.34-.46,1.15-.46,1.25,0,.19,.14,.27,.2,.3,0,0,.55,.21,.64,.23,0,0,0,0,0,0,.14,0,.25-.06,.31-.18l.06-.12s.03-.06,.04-.09c0-.01,.01-.03,.03-.06l.51-1.25v-.02c.62,.03,1.22,.06,1.81,.09,.62,.03,1.23,.06,1.86,.09,.04,0,.07,0,.1,0Zm-.42-1.26l-2.89-.14,1.03-2.58s.03-.1,.05-.15c.01-.04,.03-.09,.05-.14,.03-.09,.06-.16,.1-.23l.59,.03c.07,.17,.28,.78,.45,1.28l.07,.22c.22,.71,.47,1.45,.56,1.71Z"/>
        <path class="cls-1" d="M70.97,45.63c.35,.08,.7,.07,1.18-.07l.11-.02c.05,0,.09-.02,.15-.04,.51-.24,.86-.64,1-1.13,.17-.62,0-1.41-.38-1.86l-.08-.1s-.05-.07-.08-.11c.46-.21,.81-.62,.94-1.1,.15-.55,.02-1.12-.36-1.61-.34-.43-.85-.77-1.4-.92-.22-.06-.46-.1-.69-.16-.24-.07-.48-.13-.72-.2-.26-.07-.51-.14-.78-.21-.19-.05-.37-.1-.58-.11-.2-.01-.33,.02-.4,.26l-.04,.14s-.02,.09-.02,.14c0,.05-.01,.12-.03,.16-.02,.07-.04,.14-.07,.21-.03,.08-.05,.15-.07,.23-.15,.51-.3,1.02-.45,1.55-.03,.09-.06,.19-.09,.28-.04,.1-.07,.21-.1,.31-.12,.42-.25,.84-.37,1.25-.17,.56-.34,1.11-.49,1.67l-.02,.08s-.01,.06,0,.06v.04s0,.04,0,.04c.04,.19,.17,.25,.28,.28,.05,.01,.09,.03,.14,.05,.06,.02,.12,.05,.18,.06,.16,.05,.33,.1,.5,.14,.17,.05,.34,.1,.5,.14l1.08,.3c.13,.04,.27,.07,.41,.1,.07,.02,.15,.03,.22,.04,.21,.02,.38,.05,.54,.1Zm.45-4.39s-.05-.02-.08-.03c-.03-.01-.07-.02-.1-.03-.13-.04-.27-.07-.4-.1-.13-.03-.26-.06-.39-.1l-.94-.26c.12-.45,.26-.89,.39-1.33v-.03s1.8,.5,1.8,.5c.05,.01,.09,.02,.14,.03,.03,0,.05,0,.08,.01,.18,.05,.38,.2,.51,.38,.09,.12,.22,.35,.15,.59-.14,.52-.9,.43-1.16,.37Zm-2.66,2c.04-.12,.07-.22,.1-.33,.05-.18,.1-.36,.16-.54,.04-.15,.09-.3,.13-.46,.06,.02,.11,.03,.17,.05,.07,.02,.14,.04,.21,.06,.23,.06,.46,.12,.69,.18,.23,.06,.46,.11,.69,.18,.25,.07,.64,.29,.94,.61,.18,.19,.46,.58,.35,.99h0c-.08,.28-.28,.44-.63,.49-.34,.04-.73-.04-.99-.11-.35-.1-.7-.2-1.06-.3-.31-.09-.62-.18-.93-.26,.05-.19,.12-.38,.18-.55Z"/>
        <path class="cls-1" d="M78.72,41s-.06-.02-.1-.03l-.24-.02c-.12-.02-.26-.05-.4-.03-.19,.02-.28,.18-.33,.3-.05,.11-.09,.23-.13,.34-.04,.1-.07,.2-.11,.3-.04,.1-.09,.2-.14,.3-.05,.1-.1,.2-.14,.3-.02,.05-.05,.1-.08,.15-.04,.06-.07,.13-.1,.19-.08,.17-.16,.34-.24,.52-.09,.18-.17,.37-.25,.55l-.04,.06c-.05,.07-.11,.18-.17,.3l-.14,.32c-.04,.09-.08,.17-.11,.26-.09,.21-.17,.41-.29,.6-.12,.21-.23,.43-.33,.65l-.36,.81c-.04,.08-.04,.17-.01,.24,.03,.08,.1,.15,.19,.19l.51,.23s.06,.02,.08,.03c.21,.04,.33-.13,.36-.18,.06-.07,.09-.14,.12-.21,.07-.14,.13-.29,.2-.43,.13-.3,.27-.59,.42-.88,.14-.28,.28-.56,.41-.85,.1-.21,.2-.42,.3-.63,.09-.19,.18-.38,.27-.58,.13-.28,.26-.57,.41-.84,.09-.16,.16-.31,.23-.48l.07-.16c.05-.12,.11-.24,.16-.36s.11-.24,.16-.35c.06-.12,.06-.27,0-.41-.04-.1-.11-.18-.19-.22Z"/>
        <path class="cls-1" d="M91.39,49.37c.08-.09,.12-.19,.12-.29,0-.11-.05-.21-.14-.29-.16-.13-.29-.24-.38-.31-.11-.08-.2-.1-.26-.1h-.06c-.07,.02-.13,.07-.24,.15-.07,.07-.15,.16-.25,.28-.18-.55-.49-.97-1.04-1.43-.42-.35-.71-.57-1.32-.64-.84-.13-1.65,.13-2.12,.68-.46,.55-.75,1.51,.53,2.97l.08,.1c.1,.12,.21,.24,.3,.35,.17,.22,.31,.46,.44,.7l.13,.23s.08,.11,.11,.22c.03,.08,.06,.15,.09,.24,.06,.17,.01,.43-.11,.58-.41,.48-1.36-.14-1.7-.42-.27-.23-.69-.71-.8-1.07-.09-.36-.12-.66-.11-.96,0-.07,0-.19-.01-.34-.03-.22-.09-.29-.13-.32-.08-.07-.27-.09-.57-.07-.37,.03-.43,.1-.46,.14-.05,.06-.08,.16-.08,.35v.12c0,.07,.01,.15,0,.21-.02,1.06,.43,2.05,1.23,2.73,.48,.41,1.09,.85,1.79,.99,.24,.05,.49,.07,.76,.03,.43-.06,.81-.26,1.05-.54,.94-1.11,.17-2.31-.34-3.1-.11-.17-.23-.36-.37-.51l-.11-.13c-.16-.19-.41-.47-.59-.76-.27-.42-.33-.73-.16-.92,.32-.39,1.17-.38,1.52-.09,.55,.46,.82,.71,.91,1.38,.02,.18,.03,.32,0,.5-.03,.16-.04,.35,.17,.53,.1,.08,.21,.18,.32,.25,.16,.12,.24,.14,.44,.04,.16-.1,.27-.22,.4-.37,.05-.06,.09-.12,.14-.18,.05-.06,.1-.12,.15-.18,.11-.13,.22-.26,.33-.38,.11-.13,.23-.25,.33-.38Z"/>
        <path class="cls-1" d="M90.62,59.46c.06,.08,.13,.12,.22,.14,.06,.01,.13,0,.2-.01,.06-.03,.11-.05,.15-.08l.1-.08c.34-.26,.69-.52,1.04-.78,.35-.26,.7-.52,1.04-.78,.71-.54,1.42-1.08,2.13-1.63,.29,.34,.56,.7,.83,1.05l.57,.74c.06,.07,.13,.12,.21,.13,.1,.01,.22-.02,.33-.11l.06-.04c.05-.04,.1-.07,.14-.11,.36-.27,.28-.53,.15-.7l-.8-1.04c-.4-.53-.82-1.05-1.23-1.57-.41-.52-.82-1.04-1.22-1.56-.02-.03-.08-.1-.14-.16l-.07-.1-.08-.07c-.13-.08-.3-.08-.42,.01-.03,.02-.05,.04-.07,.06-.02,.02-.04,.04-.06,.06h0c-.26,.2-.53,.4-.21,.81,.22,.28,.44,.56,.66,.85,.2,.25,.39,.5,.59,.76-.79,.61-1.61,1.24-2.43,1.83-.37,.27-.75,.55-1.11,.83l-.84,.65c-.07,.05-.11,.12-.12,.21-.01,.1,.02,.2,.08,.29l.32,.41Z"/>
        <path class="cls-1" d="M95.59,62.99c-.56,.36-.93,1.11-1.04,1.69-.12,.67,.23,1.56,.45,2.03,.45,.96,1.2,1.57,2.11,1.76,.49,.1,1.03,.08,1.59-.08,.1-.02,.22-.06,.33-.11l1.15-.54c.3-.14,.6-.29,.9-.44,.3-.15,.6-.3,.91-.44,.05-.02,.1-.04,.15-.06,.05-.02,.11-.04,.16-.07,.1-.05,.21-.1,.29-.16,.16-.11,.2-.22,.14-.42-.02-.08-.06-.16-.09-.22l-.08-.17c-.03-.07-.08-.13-.12-.17-.06-.07-.23-.23-.53-.09l-.56,.26c-.24,.11-.47,.23-.71,.35s-.46,.24-.7,.35c-.13,.06-.26,.12-.39,.18-.14,.06-.27,.12-.41,.18-.03,.01-.06,.02-.09,.03-.05,.01-.11,.03-.17,.06-.11,.05-.22,.1-.35,.15-.11,.05-.22,.08-.36,.13-1.18,.27-1.8-.46-2.11-1.13-.18-.39-.37-.89-.21-1.33,.16-.41,.3-.63,.71-.82l.17-.08c.07-.03,.13-.07,.19-.12,.05-.04,.11-.07,.17-.1l.09-.04c.44-.21,.9-.42,1.35-.64l.23-.12c.14-.08,.28-.15,.44-.22l.26-.12c.15-.07,.37-.17,.56-.26,.15-.07,.29-.14,.41-.2l.05-.03s.06-.04,.1-.07l.04-.02,.03-.04c.06-.1,.03-.23-.02-.36l-.13-.28c-.08-.17-.15-.31-.29-.36-.13-.04-.26,0-.4,.07-.43,.2-.85,.4-1.27,.6-.07,.03-.14,.07-.2,.11-.06,.03-.12,.06-.18,.1-.31,.15-.62,.3-.93,.45-.32,.15-.63,.3-.95,.45-.21,.1-.42,.21-.67,.37Z"/>
        <path class="cls-1" d="M99.19,71.18l-1.75,.39c-.14,.03-.24,.12-.25,.21-.03,.06-.03,.18,0,.33,0,.14,.04,.26,.05,.33,.07,.34,.15,.67,.22,1,.07,.31,.13,.61,.2,.92,.07,.3,.15,.64,.3,.93,.54,1.03,1.55,1.74,2.67,1.97,.52,.11,1.07,.11,1.6,0,1.56-.34,2.64-1.67,2.57-3.15-.01-.43-.09-.86-.16-1.28-.02-.12-.04-.25-.06-.37-.03-.15-.05-.29-.07-.44-.05-.3-.1-.61-.16-.91l-.05-.23c-.03-.12-.05-.23-.12-.38-.11-.16-.27-.23-.44-.21-.06,0-.12,0-.18,.01l-.34,.07c-.38,.08-.76,.16-1.13,.24-.6,.13-1.21,.27-1.82,.37-.35,.06-.71,.14-1.05,.21Zm.26,4.09c-.17-.17-.44-.52-.49-.75l-.42-1.9,.97-.21c.31-.07,.63-.13,.94-.18,.32-.06,.63-.11,.94-.18l.61-.13c.12-.03,.25-.05,.37-.08,.12-.02,.25-.05,.37-.08l.12-.03c.11-.03,.22-.05,.32-.07l.04,.25s0,.06,0,.08v.06c.08,.52,.16,.97,.25,1.37,.29,1.34-.3,2.31-1.58,2.59-.83,.18-1.82-.12-2.46-.75Z"/>
        <path class="cls-1" d="M102.81,80.28c-.2,0-.39,.02-.59,.03h-.04c-.12-.03-.27-.02-.37-.02l-.35,.02c-.09,0-.19,.01-.28,.02-.23,.02-.44,.03-.66,.02-.24,0-.49-.01-.73,0l-.88,.05c-.1,0-.18,.05-.23,.12-.05,.06-.08,.15-.07,.24l.03,.56c.01,.23,.19,.3,.29,.32,.02,0,.04,0,.05,0,.08,.02,.17,.02,.24,.01,.16,0,.33-.01,.49-.02,.32-.02,.64-.03,.96-.03,.31,0,.63-.01,.95-.03,.23,0,.46-.02,.69-.02,.21,0,.42-.01,.64-.02,.31-.01,.63-.03,.93-.02,.18,0,.34,0,.52-.02h.18c.13-.02,.26-.02,.39-.03,.13,0,.26,0,.4-.02,.11,0,.23-.06,.32-.13,.1-.09,.16-.2,.15-.32,0-.04-.01-.07-.02-.1l-.09-.22c-.04-.12-.08-.25-.15-.37-.1-.16-.29-.16-.42-.16-.12,0-.24,.02-.36,.04-.11,.02-.21,.03-.32,.04-.11,0-.22,0-.33,.01-.11,0-.22,0-.33,.01-.06,0-.12,0-.18,0-.07,0-.14,0-.22,0-.19,.01-.39,.02-.58,.03Z"/>
        <path class="cls-1" d="M102.26,84.55c-1.46-.17-2.82,.49-3.62,1.77l-.08,.13c-.05,.09-.11,.17-.16,.26-.16,.28-.27,.96-.29,1.17-.23,1.92,1.1,3.74,2.94,4.12,.1,.02,.2,.04,.3,.05,.07,0,.13,0,.2,0,.04,0,.08,0,.12,0,.16,.02,.31,.02,.5,0h0c1.69-.15,3.13-1.57,3.33-3.29,.12-1-.14-1.98-.74-2.77-.61-.81-1.5-1.31-2.49-1.43Zm1.51,2.2c.41,.53,.59,1.18,.51,1.85-.16,1.36-1.4,2.34-2.75,2.18-.66-.08-1.25-.41-1.67-.92-.42-.52-.61-1.16-.53-1.8,.08-.67,.41-1.28,.92-1.7,.52-.43,1.18-.63,1.85-.55,.67,.08,1.26,.42,1.67,.95Z"/>
        <path class="cls-1" d="M102.13,101.25c-.12-.07-.32-.11-.48-.14-.17-.04-.33-.07-.48-.1-.15-.03-.29-.07-.44-.1-.2-.05-.4-.09-.59-.13-.75-.18-1.44-.34-2.14-.48-.35-.08-.71-.17-1.06-.25-.38-.09-.76-.17-1.12-.26l-.15-.04c-.05-.01-.09-.02-.14-.02-.1-.01-.24,0-.35,.14-.03,.04-.07,.09-.1,.14-.03,.04-.05,.08-.07,.1-.02,.02-.05,.05-.08,.08-.03,.03-.05,.06-.06,.09-.04,.08-.08,.15-.11,.23-.03,.07-.06,.14-.1,.2l-.32,.57c-.06,.12-.05,.26,.04,.39,.07,.1,.16,.17,.23,.21,.09,.05,.17,.11,.25,.19,.03,.03,.07,.06,.1,.09,.04,.04,.09,.08,.14,.12l.33,.29c.7,.6,1.41,1.21,2.06,1.9h-.03c-.11-.05-.22-.09-.32-.12-.43-.12-.85-.25-1.28-.38-.49-.15-.99-.3-1.48-.43-.07-.02-.17-.05-.29-.09l-.16-.05c-.18-.04-.35-.07-.43-.08h-.04c-.17,.03-.29,.11-.36,.24-.03,.06-.06,.12-.09,.19-.02,.05-.04,.1-.07,.15-.11,.2-.23,.36-.36,.55l-.12,.23h.02c-.04,.11-.05,.21-.03,.3,.02,.08,.08,.15,.16,.19,.1,.05,.42,.37,.57,.51,.23,.25,.48,.5,.6,.62,.41,.41,.83,.82,1.24,1.24,.67,.68,1.35,1.35,2.02,2.01l.07,.08s.06,.06,.08,.09c.06,.08,.11,.12,.2,.17,.02,0,.04,.02,.07,.02,.04,0,.08,0,.14,0,.24-.07,.56-.47,.61-.57,.07-.12,.07-.22,.03-.33l-.04-.06s-.04-.05-.05-.06c-.04-.05-.09-.09-.12-.12l-2.79-2.79-.89-.9s-.1-.1-.15-.15c-.07-.07-.14-.14-.2-.21,.42,.14,.84,.26,1.27,.39,.3,.09,.6,.18,.9,.27,.27,.08,.53,.16,.8,.24,.27,.08,.53,.15,.8,.23,.25,.08,.49,.15,.74,.22,.24,.07,.49,.14,.72,.21,.09,.04,.19,.06,.28,.07,.18,0,.34-.07,.41-.21,.06-.1,.11-.21,.16-.32,.05-.1,.1-.21,.15-.31,.14-.25,.1-.44-.12-.63-.03-.02-.05-.05-.08-.07h-.01c-.04-.06-.08-.1-.12-.14l-1.1-.95c-.09-.07-.18-.15-.27-.22-.11-.09-.21-.17-.32-.26-.34-.29-.69-.58-1.04-.9-.13-.11-.26-.22-.39-.33-.32-.28-.66-.57-1-.83,.02-.02,.05-.05,.11-.09,.16,.03,.33,.07,.5,.11,.08,.02,.16,.04,.24,.06,.41,.1,.82,.19,1.23,.28l2.91,.66c.26,.06,.52,.13,.77,.18l.15,.04s.08,.02,.13,.01h.06s-.04,0-.04,0l.03-.16h0s.02,.16,.02,.16h0s.05,0,.05,0l.04-.03s.11-.08,.15-.16c.05-.09,.33-.8-.02-1Z"/>
        <path class="cls-1" d="M94.61,112.85l-.05-.08c-.06-.08-.13-.16-.18-.26-.09-.13-.15-.27-.23-.42l-.09-.17c-.58-1.02-1.03-1.84-1.44-2.59-.02-.04-.08-.14-.15-.27-.14-.24-.34-.61-.55-.96-.18-.32-.61-1.08-.68-1.14-.14-.12-.29-.06-.36-.04,0,0-.55,.31-.59,.36-.09,.1-.11,.23-.06,.35l.05,.13s.03,.06,.04,.08c0,.01,.02,.03,.03,.06l.65,1.19v.02c-.4,.45-.8,.89-1.2,1.34-.41,.46-.83,.92-1.24,1.38-.02,.03-.05,.05-.07,.08,0,0-.01,0-.02,0-.03-.02-.06-.03-.08-.04-.18-.08-.39-.16-.6-.22-.07-.03-.15-.06-.23-.09-.14-.06-.28-.11-.45-.17-.02,0-.05-.02-.06-.02-.13-.04-.28,0-.37,.1-.09,.1-.27,.57-.29,.7v.05c-.02,.1,.03,.18,.05,.21l.03,.06h.07s.05,.04,.05,.04c.05,.03,.1,.05,.13,.07,1.42,.55,2.67,1.03,3.84,1.47,.48,.18,.97,.37,1.44,.55l.47,.18s.07,.03,.1,.04c.02,0,.05,.02,.08,.03,.05,.03,.08,.06,.13,.1,.03,.02,.05,.04,.07,.05h0s.08,.04,.12,.05c.07,.01,.13,0,.21-.04,.13-.05,.62-.59,.76-.75l.69-.77c.11-.12,.14-.27,.07-.42-.03-.07-.07-.14-.12-.2Zm-1.32,.28l-.39,.44c-.17-.05-.75-.27-1.23-.45l-.26-.1c-.69-.27-1.42-.55-1.68-.65l1.93-2.15,1.35,2.43s.05,.09,.08,.13c.02,.04,.05,.08,.08,.12,.05,.08,.08,.15,.12,.22Zm-6.47-1.56h0Z"/>
        <path class="cls-1" d="M88.17,118.98s-.05-.07-.09-.1c-.04-.04-.08-.09-.11-.12-.04-.06-.08-.12-.12-.19-.04-.07-.08-.13-.13-.2l-.07-.1c-.28-.41-.56-.82-.85-1.23-.06-.08-.11-.17-.16-.25-.06-.09-.11-.19-.17-.27-.25-.36-.49-.72-.74-1.08-.32-.48-.65-.96-.98-1.43l-.05-.06s-.05-.06-.04-.04l-.06-.05c-.13-.07-.26-.06-.4,.04-.04,.03-.08,.05-.13,.07-.06,.03-.11,.06-.16,.09-.14,.1-.28,.19-.42,.29-.15,.1-.3,.2-.44,.31l-.92,.65c-.18,.13-.34,.24-.51,.4-.15,.15-.28,.26-.41,.35-.36,.27-.55,.64-.69,.96l-.06,.1s-.04,.09-.06,.14c-.14,.55-.05,1.07,.25,1.49h0c.37,.53,1.09,.9,1.68,.88h.13s.09,0,.14,0c-.13,.49-.03,1.02,.26,1.42,.26,.36,.63,.6,1.08,.69,.13,.03,.26,.04,.4,.04,.55,.01,1.13-.17,1.6-.5,.1-.07,.19-.15,.29-.22,.09-.07,.18-.14,.27-.21,.22-.15,.43-.31,.64-.46,.2-.15,.41-.29,.61-.44,.16-.11,.32-.23,.45-.39,.13-.14,.19-.27,.05-.47l-.08-.11Zm-3.05-1.9c-.06,.04-.12,.08-.18,.12-.2,.14-.39,.28-.58,.43-.19,.14-.37,.28-.57,.42-.47,.33-1.63,.58-2.05-.02-.38-.53,.19-1.11,.74-1.49,.3-.21,.59-.42,.89-.62,.27-.19,.54-.37,.8-.56,.11,.16,.22,.32,.31,.49,.06,.11,.12,.19,.19,.29,.11,.15,.21,.3,.31,.45,.09,.13,.19,.27,.28,.4-.05,.03-.09,.06-.14,.09Zm-1.24,2.6c.11-.22,.31-.41,.46-.52,.02-.01,.05-.03,.07-.04,.03-.02,.06-.04,.09-.06,.11-.08,.22-.16,.33-.24,.11-.08,.21-.16,.33-.24l.79-.56c.27,.38,.54,.77,.8,1.16l-1.52,1.07s-.07,.06-.11,.09c-.02,.02-.04,.04-.06,.05-.18,.13-.49,.19-.74,.14-.13-.02-.32-.08-.43-.24-.12-.18-.13-.38,0-.62Z"/>
        <path class="cls-1" d="M80.24,123.7c-.06-.09-.11-.18-.16-.28-.05-.1-.09-.19-.14-.29-.05-.1-.1-.21-.15-.31-.03-.05-.05-.11-.07-.16-.02-.07-.05-.13-.08-.2-.09-.18-.18-.37-.27-.55-.08-.17-.16-.34-.25-.51l-.02-.06c-.03-.11-.09-.24-.13-.32l-.16-.32c-.04-.08-.09-.17-.13-.25-.11-.2-.21-.39-.29-.61-.09-.22-.18-.44-.29-.66l-.4-.79c-.08-.17-.27-.22-.45-.13l-.5,.25c-.25,.13-.18,.38-.16,.44,.01,.09,.05,.16,.08,.23,.07,.15,.14,.29,.22,.44,.14,.29,.28,.58,.41,.87,.12,.29,.26,.57,.4,.86,.1,.21,.2,.42,.3,.63,.09,.19,.18,.38,.27,.57,.14,.28,.28,.56,.39,.85,.07,.17,.15,.32,.23,.48l.08,.15c.06,.12,.11,.23,.17,.35,.06,.12,.11,.24,.17,.36,.07,.13,.21,.25,.36,.28,.08,.02,.16,.01,.24-.03,.03-.02,.06-.04,.08-.06l.17-.17c.09-.08,.2-.17,.28-.29,.1-.16,.04-.33-.02-.45-.05-.11-.12-.21-.18-.32Zm-2.9-5.3h0s0,0,0,0Z"/>
        <path class="cls-1" d="M67.9,124.88h-.11c-.16,0-.33,.02-.48,.01-.28,0-.55-.05-.82-.1l-.26-.04c-.06,0-.14-.01-.24-.05-.08-.02-.15-.05-.25-.08-.17-.05-.34-.26-.38-.46-.05-.25,.1-.48,.42-.69,.3-.19,.7-.31,.97-.37,.34-.06,.99-.09,1.33,.05,.34,.16,.58,.32,.82,.52,.05,.04,.15,.12,.27,.2,.19,.11,.28,.11,.33,.1,.2-.04,.63-.66,.6-.85-.02-.08-.08-.16-.22-.28l-.1-.07c-.06-.04-.12-.09-.16-.13-.81-.68-1.86-.96-2.89-.77-.83,.16-1.85,.45-2.4,1.33-.22,.38-.31,.79-.24,1.16,.27,1.43,1.69,1.58,2.63,1.69,.2,.02,.42,.05,.63,.04h.16c.25-.01,.63-.03,.97,.02,.5,.05,.77,.2,.82,.45,.09,.49-.44,1.15-.89,1.23-.65,.12-1.04,.2-1.65-.16-.15-.09-.27-.18-.38-.31-.1-.13-.25-.25-.5-.21-.13,.03-.28,.06-.41,.09-.2,.05-.27,.1-.31,.32-.02,.19,0,.35,.03,.54,.01,.07,.03,.14,.05,.22,.02,.08,.03,.15,.05,.23,.03,.17,.06,.34,.09,.5,.03,.17,.05,.33,.08,.5,.04,.19,.15,.32,.3,.35,.05,.01,.1,.01,.16,0,.2-.04,.37-.07,.48-.1,.13-.04,.2-.09,.24-.13l.04-.05c.03-.06,.04-.14,.04-.28-.01-.1-.03-.21-.06-.37,.54,.21,1.06,.24,1.77,.1,.54-.1,.89-.19,1.33-.62,.63-.57,.94-1.37,.81-2.07-.13-.71-.7-1.53-2.63-1.46Z"/>
        <path class="cls-1" d="M61.29,122.63s-.59-.22-.65-.23c-.14,0-.25,.06-.3,.18l-.06,.12s-.03,.06-.04,.09c0,.01-.01,.03-.03,.06l-.5,1.26v.02c-.62-.02-1.22-.05-1.81-.08-.62-.03-1.23-.05-1.86-.08-.04,0-.07,0-.11,0,0,0,0-.01,0-.02,0-.03-.02-.07-.02-.09-.05-.19-.13-.41-.21-.6-.03-.08-.05-.16-.08-.24-.04-.14-.09-.28-.15-.45,0-.02-.01-.05-.02-.06-.05-.13-.17-.21-.31-.22-.13,0-.62,.15-.72,.23l-.04,.03c-.09,.04-.12,.13-.13,.17l-.03,.06,.04,.06v.06c.02,.06,.03,.1,.04,.15,.48,1.44,.91,2.72,1.33,3.89,.16,.48,.32,.95,.48,1.42l.17,.51s.02,.07,.04,.1c0,.02,.02,.05,.02,.04v.05c0,.05,.01,.1,.01,.15,0,.04,0,.07,.01,.09,.02,.12,.07,.21,.21,.26,.02,0,.05,.02,.09,.03,.27,.06,.94,.08,.98,.08l1.03,.04c.17,0,.3-.07,.37-.21,.04-.07,.06-.15,.09-.23l.03-.1c.02-.1,.04-.2,.09-.3,.05-.15,.11-.29,.17-.44l.08-.18c.42-1.12,.75-1.97,1.07-2.77,.02-.04,.05-.15,.11-.29,.1-.26,.25-.65,.38-1.04,.13-.35,.45-1.16,.45-1.25,0-.19-.14-.27-.2-.3Zm-2.05,2.7l-1.01,2.59s-.03,.1-.05,.15c-.01,.04-.03,.08-.04,.13-.03,.09-.06,.16-.09,.23l-.59-.02c-.07-.16-.28-.77-.45-1.26l-.08-.23c-.23-.7-.48-1.44-.57-1.7l2.89,.11Zm-4.13-2.88h0s0,0,0,0Z"/>
        <path class="cls-1" d="M51.98,122.26v-.04c-.04-.15-.13-.24-.29-.28-.05-.01-.09-.03-.14-.05-.06-.02-.12-.05-.18-.06-.16-.04-.33-.09-.5-.14-.17-.05-.34-.1-.51-.14l-1.09-.29c-.21-.06-.41-.11-.63-.14-.21-.02-.38-.05-.54-.09-.34-.08-.7-.06-1.17,.08-.02,0-.03,0-.06,.01h-.06s-.09,.03-.15,.05c-.51,.25-.85,.64-.99,1.14h0c-.17,.63,0,1.41,.4,1.86l.08,.1s.06,.07,.08,.11c-.46,.22-.8,.63-.93,1.11-.15,.55-.01,1.12,.38,1.61,.34,.43,.86,.76,1.41,.91,.12,.03,.24,.05,.36,.08,.11,.02,.22,.04,.33,.07,.25,.07,.5,.13,.75,.19,.25,.06,.49,.13,.75,.19,.09,.02,.17,.05,.26,.06,.1,.02,.21,.04,.33,.04,.19,.01,.33-.03,.39-.27l.04-.13s.02-.09,.02-.14c0-.05,.01-.12,.03-.16,.02-.07,.04-.14,.07-.21,.03-.08,.05-.15,.07-.23,.15-.51,.3-1.02,.44-1.55,.02-.09,.06-.19,.09-.29,.04-.1,.07-.21,.1-.31,.12-.42,.24-.84,.36-1.25,.16-.56,.33-1.12,.47-1.67l.02-.08s0-.07,0-.06v-.04Zm-3.76,2.02c-.25-.07-.64-.28-.94-.61-.18-.19-.46-.58-.35-.99,.15-.56,.79-.57,1.38-.44,.08,.02,.16,.04,.24,.06,.34,.09,.68,.18,1.03,.28,.32,.09,.64,.18,.97,.26-.05,.19-.11,.38-.18,.55-.04,.12-.07,.22-.1,.33-.05,.17-.09,.34-.14,.51-.05,.16-.09,.33-.14,.49-.05-.02-.11-.03-.16-.05-.07-.02-.14-.04-.22-.06-.23-.06-.47-.12-.7-.17-.23-.05-.46-.11-.69-.17Zm-.5,1.14s.05,.02,.08,.03c.04,.01,.07,.03,.11,.03,.13,.04,.27,.07,.4,.1,.13,.03,.26,.06,.39,.09l.94,.25c-.12,.45-.25,.89-.38,1.34v.02s-1.8-.48-1.8-.48c-.01,0-.02,0-.04,0-.03,0-.07-.01-.1-.02-.03,0-.05,0-.08-.01-.21-.06-.46-.25-.59-.48-.07-.12-.14-.3-.09-.49,.14-.52,.89-.44,1.16-.38Z"/>
        <path class="cls-1" d="M43.87,119.4l-.52-.23c-.25-.11-.41,.1-.44,.16-.06,.07-.09,.14-.12,.21-.07,.15-.13,.3-.2,.44-.13,.29-.26,.59-.41,.87-.14,.28-.27,.57-.4,.85-.1,.21-.19,.42-.29,.63-.09,.19-.18,.39-.27,.58-.13,.28-.26,.57-.4,.84-.09,.16-.15,.32-.22,.48l-.07,.16c-.05,.12-.11,.24-.16,.35-.06,.12-.11,.24-.16,.36-.09,.21-.03,.53,.19,.62,.03,.01,.05,.02,.08,.02,0,0,.02,0,.03,0l.23,.02c.12,.02,.26,.04,.41,.03,.19-.02,.28-.18,.33-.3,.05-.11,.09-.23,.13-.34,.03-.1,.07-.2,.11-.3,.04-.1,.09-.19,.13-.29,.05-.1,.1-.21,.14-.31,.02-.05,.05-.1,.08-.15,.04-.06,.07-.13,.1-.19,.08-.18,.16-.35,.24-.53,.08-.17,.16-.34,.23-.52l.03-.06c.07-.09,.14-.23,.18-.32l.14-.32c.04-.09,.07-.17,.11-.26,.09-.21,.17-.41,.28-.61,.11-.21,.23-.42,.33-.64l.36-.81c.04-.09,.04-.18,0-.26-.03-.07-.1-.13-.18-.17Z"/>
        <path class="cls-1" d="M35.61,116.52c0-.08,0-.15,0-.21,.01-1.06-.44-2.05-1.25-2.72-.65-.54-1.53-1.14-2.56-1-.43,.07-.8,.26-1.04,.55-.93,1.12-.15,2.31,.37,3.1,.11,.17,.23,.35,.37,.51l.11,.13c.17,.19,.42,.47,.6,.76,.28,.41,.33,.72,.17,.92-.32,.39-1.16,.39-1.52,.1-.55-.46-.82-.71-.92-1.37-.02-.17-.03-.32,0-.5,.03-.16,.04-.35-.17-.53-.1-.08-.22-.18-.32-.25-.18-.13-.26-.14-.44-.04-.16,.1-.27,.22-.4,.37-.05,.06-.1,.12-.14,.18-.05,.06-.09,.12-.14,.18-.11,.13-.22,.26-.33,.38-.11,.13-.23,.26-.33,.39-.17,.2-.16,.43,.04,.6,.15,.12,.27,.22,.36,.28,.12,.08,.2,.09,.26,.1h.06c.06-.03,.13-.07,.24-.16,.07-.07,.14-.16,.25-.28,.18,.55,.49,.97,1.05,1.42,.35,.29,.61,.49,1.05,.58,.08,.02,.17,.03,.27,.04,.84,.12,1.65-.14,2.11-.7,.46-.55,.73-1.52-.56-2.96l-.07-.08c-.11-.12-.22-.24-.31-.37-.17-.22-.31-.46-.45-.7l-.13-.23s-.08-.11-.11-.22c-.03-.08-.06-.15-.09-.24-.07-.16-.01-.43,.11-.58,.16-.2,.43-.24,.8-.11,.34,.11,.69,.34,.9,.51,.27,.22,.7,.7,.81,1.06,.09,.37,.13,.66,.12,.96,0,.07,0,.2,.02,.34,.03,.21,.09,.29,.13,.32,.08,.07,.28,.09,.58,.06,.37-.04,.43-.11,.46-.14,.05-.06,.08-.16,.08-.35v-.12Z"/>
        <path class="cls-1" d="M28.33,107.38c-.1-.13-.25-.18-.42-.13-.03,.01-.1,.05-.15,.09l-.1,.08c-.34,.26-.69,.52-1.03,.78-.35,.26-.7,.53-1.04,.79-.71,.54-1.41,1.1-2.12,1.65-.27-.32-.54-.67-.8-1l-.61-.78c-.1-.13-.3-.2-.54,0l-.06,.04c-.05,.04-.1,.07-.14,.11-.08,.06-.18,.16-.23,.28-.03,.1-.05,.24,.09,.42l.81,1.04c.41,.53,.83,1.05,1.26,1.57,.41,.51,.83,1.02,1.23,1.53,.02,.03,.08,.1,.14,.16l.08,.1,.08,.07s.08,.04,.12,.05c.11,.02,.22,0,.3-.06,.03-.02,.05-.04,.08-.07,.02-.02,.04-.04,.06-.05h0c.16-.12,.28-.22,.33-.35,.07-.18-.03-.34-.12-.46-.21-.27-.42-.53-.63-.8-.21-.26-.42-.52-.62-.79,.79-.62,1.6-1.25,2.41-1.85,.37-.28,.74-.55,1.11-.84l.84-.66c.14-.11,.16-.34,.03-.5l-.32-.41Z"/>
        <path class="cls-1" d="M23.33,103.89c.56-.37,.92-1.12,1.02-1.7,.12-.67-.24-1.56-.47-2.03-.71-1.48-2.13-2.11-3.72-1.65-.11,.03-.22,.06-.33,.11l-1.14,.54c-.3,.14-.59,.29-.89,.44-.3,.15-.6,.3-.91,.45-.05,.02-.1,.04-.14,.06-.05,.02-.11,.04-.16,.07-.11,.05-.2,.1-.29,.16-.16,.11-.2,.22-.14,.42,.02,.07,.06,.15,.09,.23l.08,.17c.04,.07,.08,.13,.12,.17,.06,.07,.23,.22,.54,.08l.55-.26c.24-.12,.47-.24,.71-.36,.23-.12,.46-.24,.7-.36,.12-.06,.25-.12,.39-.18,.14-.06,.27-.12,.41-.19,.03-.01,.06-.02,.09-.03,.05-.01,.11-.03,.16-.06,.11-.06,.23-.11,.37-.16,.11-.05,.22-.09,.36-.13,1.18-.28,1.81,.45,2.12,1.11,.19,.39,.38,.89,.22,1.33-.15,.42-.29,.63-.7,.83l-.17,.08c-.07,.03-.13,.08-.2,.12-.05,.04-.11,.07-.17,.1-.47,.23-.96,.46-1.43,.7l-.23,.12c-.14,.08-.29,.16-.44,.23l-.26,.12c-.15,.07-.36,.17-.56,.27-.15,.07-.29,.14-.41,.21l-.05,.03s-.06,.04-.1,.07l-.04,.02-.02,.04c-.06,.1-.03,.23,.02,.36l.13,.28c.08,.17,.15,.31,.29,.35,.01,0,.03,0,.04,.01,.12,.02,.24-.02,.36-.08,.43-.2,.84-.4,1.26-.61,.07-.03,.14-.07,.2-.11,.06-.03,.12-.07,.18-.1,.32-.16,.65-.32,.98-.48,.3-.15,.6-.29,.9-.44,.21-.1,.42-.22,.67-.38Z"/>
        <path class="cls-1" d="M19.72,95.7l-.02-.16h0l.04,.16,1.66-.38c.14-.03,.24-.13,.24-.21,.02-.06,.02-.18,0-.32,0-.14-.04-.27-.05-.33-.07-.32-.14-.64-.21-.95-.07-.32-.14-.64-.22-.97-.07-.3-.15-.64-.31-.93-.81-1.5-2.62-2.31-4.29-1.93-1.56,.36-2.62,1.69-2.54,3.17,.02,.43,.1,.86,.17,1.28,.02,.13,.05,.25,.07,.38,.03,.15,.05,.29,.07,.44,.05,.3,.1,.61,.17,.92l.05,.22c.03,.12,.05,.23,.12,.38,.08,.11,.18,.18,.3,.2,.05,0,.1,.01,.14,0,.06,0,.12,0,.18-.01l.35-.07c.38-.08,.76-.17,1.13-.25,.59-.14,1.21-.28,1.82-.38,.38-.07,.75-.15,1.11-.23Zm.57-1.43l-.97,.22c-.31,.07-.62,.13-.94,.19-.32,.06-.63,.12-.94,.19l-.61,.14c-.12,.03-.24,.05-.36,.08-.12,.03-.25,.05-.37,.08l-.12,.03c-.11,.03-.22,.05-.33,.07l-.02-.06v-.12s-.01-.01-.01-.02v-.05s-.01-.06-.01-.08v-.06c-.09-.51-.17-.96-.27-1.37-.15-.64-.09-1.21,.17-1.66,.27-.47,.75-.79,1.38-.94,.83-.19,1.82,.1,2.47,.73,.17,.16,.44,.51,.49,.74l.44,1.9Z"/>
        <path class="cls-1" d="M15.97,86.65c.18,0,.35-.02,.53-.03h0s.07,0,.07,0c.12,.02,.27,.02,.37,.01l.35-.02c.09,0,.19-.01,.28-.02,.23-.02,.45-.04,.68-.03,.24,0,.48,0,.72,0l.88-.06c.09,0,.17-.04,.22-.1,.06-.07,.09-.16,.08-.26l-.04-.56c-.02-.28-.27-.31-.34-.32-.08-.02-.16-.02-.24-.01-.16,0-.33,.02-.49,.03-.32,.02-.64,.04-.96,.04-.31,0-.63,.02-.94,.03-.23,.01-.47,.02-.7,.03-.21,0-.42,.02-.63,.03-.31,.02-.63,.03-.94,.03-.18,0-.35,0-.53,.02h-.17c-.13,.02-.26,.03-.39,.03-.13,0-.27,.01-.4,.02-.13,0-.27,.08-.36,.18-.07,.08-.11,.18-.1,.27,0,.04,.01,.08,.03,.14l.08,.18c.04,.12,.08,.25,.15,.37,.06,.09,.14,.13,.23,.14,.07,.01,.14,.01,.19,.01,.12,0,.24-.03,.36-.04,.11-.02,.21-.03,.32-.04,.11,0,.21-.01,.31-.02,.12,0,.23,0,.35-.02,.06,0,.12,0,.18,0,.07,0,.15,0,.22,0,.2-.01,.4-.02,.61-.03Zm.58-.17v-.03s0,.02,0,.02h0Z"/>
        <path class="cls-1" d="M16.47,82.38c1.46,.16,2.81-.51,3.61-1.8l.08-.13c.05-.08,.11-.17,.16-.26,.16-.28,.26-.96,.28-1.17,.22-2.02-1.28-3.91-3.27-4.14-.07,0-.13,0-.2,0-.04,0-.09,0-.12,0-.15-.02-.31-.02-.5,0h0c-1.69,.17-3.11,1.59-3.3,3.32-.22,1.96,1.07,3.74,2.92,4.13,.11,.02,.23,.04,.34,.05Zm.16-1.25c-.67-.07-1.27-.41-1.68-.94-.41-.52-.6-1.18-.52-1.84,.15-1.36,1.38-2.35,2.74-2.2,.08,0,.16,.02,.24,.04,.56,.12,1.06,.42,1.44,.87,.43,.52,.62,1.15,.55,1.8-.16,1.4-1.39,2.42-2.75,2.27Z"/>
      </g>
      <g>
        <path class="cls-1" d="M53.37,99.12l.53,.16,1.8,.37c.23-.05,.41-.17,.54-.36,.08-.23,.08-.44-.01-.61-.35-.29-.77-.47-1.27-.55s-.97-.19-1.41-.34l.03-.37,.24-1.17,2.31,.39c.23-.05,.41-.17,.54-.36l.07-.36c-.05-.23-.17-.41-.36-.54l-1.84-.38-.05,.04-.49-.1,.23-1.55c-.05-.23-.16-.41-.36-.54l-.36-.07c-.23,.05-.41,.17-.54,.36l-.66,4.08-.07,.31-1.98-.41h-.19c-.24,.05-.43,.17-.57,.36l-.07,.36c.05,.23,.17,.41,.38,.55l2.25,.47-.1,.68-.58,2.77-.15,.49-.32-.25-.4-.08c-.23,.05-.41,.17-.54,.36-.08,.23-.08,.44,.01,.61,.38,.58,.82,1.09,1.32,1.54l.49-.09c.28-.29,.47-.64,.57-1.05,.1-.42,.21-.83,.33-1.25l.58-2.77-.04-.05,.13-.63Z"/>
        <path class="cls-1" d="M54.43,100.56l-.36-.07c-.23,.05-.41,.17-.54,.36,0,.47,.1,.92,.33,1.37,.22,.44,.41,.89,.57,1.33l.28,.25,.36,.07c.23-.05,.41-.16,.54-.36l.07-.36c-.19-.45-.37-.89-.54-1.34s-.41-.86-.7-1.24Z"/>
        <path class="cls-1" d="M61.19,103.96c-.41-.34-.8-.74-1.16-1.2,.47-.59,.91-1.21,1.34-1.86,.42-.65,.77-1.33,1.05-2.06,.12-.29,.13-.57,.03-.84-.24-.33-.57-.53-.98-.58l-3.19-.66c-.23,.05-.41,.17-.54,.36-.08,.23-.08,.44,.01,.61l.44,.37,2.83,.59c-.23,.51-.5,1.01-.8,1.48-.3,.47-.62,.92-.96,1.35-.32-.41-.6-.86-.82-1.34-.23-.49-.5-.93-.82-1.34l-.36-.07c-.23,.05-.41,.16-.54,.36,.03,.6,.21,1.17,.54,1.71,.33,.54,.64,1.07,.93,1.6l-.32,.4c-.52,.38-1.06,.66-1.63,.86-.26,.07-.48,.21-.65,.43-.08,.23-.08,.44,.01,.61l.44,.37h.28c.47-.14,.93-.34,1.39-.59s.88-.54,1.26-.86c.37,.45,.79,.87,1.23,1.24,.45,.37,.9,.73,1.36,1.08l.32,.02c.23-.05,.41-.17,.54-.36,.08-.23,.08-.44-.01-.61-.39-.36-.8-.71-1.21-1.05Z"/>
        <path class="cls-1" d="M50.72,100.12c-.05-.23-.16-.41-.36-.54-.23-.08-.44-.08-.61,.01-.28,.32-.54,.67-.77,1.05s-.5,.71-.8,.99l-.07,.36c.05,.23,.16,.41,.36,.54,.25,.08,.46,.08,.64,0,.36-.24,.66-.54,.89-.91,.23-.37,.45-.73,.65-1.1l.08-.4Z"/>
        <path class="cls-1" d="M62.42,95.42c.05,.23,.16,.41,.36,.54,.23,.08,.44,.08,.61-.01,.36-.52,.59-1.11,.7-1.78,.18-.59,.23-1.16,.12-1.71-.62-.46-1.34-.79-2.15-.99s-1.6-.41-2.37-.63l-1.89-.39,.47-2.25c-.05-.23-.17-.41-.36-.54-.23-.08-.44-.08-.61,.01l-.37,.44-.44,2.11c-.9-.19-1.81-.34-2.72-.47s-1.82-.18-2.71-.16c-.31,.28-.49,.65-.56,1.1l-.19,1.13-.08,.17-.03,.6c.05,.23,.17,.41,.36,.54l.38,.08c.23-.05,.41-.16,.54-.36l.15-.95,.25-.98c.74,.06,1.49,.14,2.25,.26,.76,.11,1.52,.23,2.27,.36l3.01,.63c.59,.15,1.19,.32,1.78,.49,.59,.17,1.17,.36,1.73,.57l-.44,1.65-.07,.55Z"/>
        <g>
          <path class="cls-1" d="M60.86,61.06h0s-.02-.04-.02-.06c0,.02,.02,.04,.02,.06Z"/>
          <polygon class="cls-1" points="65.79 71.56 67.54 71.93 67.58 71.91 67.54 71.93 65.79 71.56 65.79 71.56"/>
          <path class="cls-1" d="M69.18,67.77h0s-.02-.04-.03-.06c0,.02,.02,.04,.03,.06Z"/>
          <path class="cls-1" d="M66.05,51.92c-17.34-3.61-34.32,7.53-37.92,24.86l62.79,13.06c3.61-17.34-7.53-34.32-24.86-37.92Zm-4.71,9.25l-.08,.4-.02,.09-.05,.08c-.45,.67-.9,1.37-1.34,2.07-.41,.64-.84,1.29-1.29,1.92l.05,.29,.02,.09-.02,.09-.36,1.74,.04,.05-.04,.2-1.01,4.84-.31,1.96c-.06,.63-.33,1.12-.81,1.47l-.03,.02-.03,.02c-.24,.12-.51,.15-.81,.09-.06-.01-.13-.03-.2-.05l-.07-.02-.06-.04c-.29-.2-.48-.5-.55-.84l-.02-.1,.02-.1,.07-.36v-.03s.01-.03,.01-.03l.25-.75,.26-1.69,.82-3.94c-.08,.08-.16,.16-.24,.24-.41,.42-.89,.79-1.42,1.08l-.16,.09-.18-.04-.36-.07-.1-.02-.08-.06c-.29-.2-.48-.5-.55-.84l-.02-.1,.02-.1,.07-.36,.03-.17,.13-.11c1.33-1.1,2.52-2.34,3.56-3.69,1.05-1.37,2.06-2.79,3.01-4.22l.07-.11,.11-.06c.24-.12,.51-.15,.8-.09,.06,.01,.13,.03,.19,.05l.07,.02,.06,.04c.29,.2,.48,.5,.55,.84l.02,.1-.02,.1Zm9.03,15.25l-.43,2.09-.02,.11-.07,.09c-.24,.3-.54,.5-.91,.6l-.09,.02h-.09s-1.65-.21-1.65-.21h-.06s-.05-.03-.05-.03c-.6-.22-1.19-.46-1.76-.7-.64-.28-1.17-.71-1.59-1.3v-.02s-.02-.02-.02-.02c-.25-.43-.38-.9-.39-1.39,0-.44,.02-.87,.07-1.29v-.02s0-.02,0-.02l.28-1.32-2.81-.58-.1-.02-.08-.06c-.29-.2-.48-.5-.55-.84l-.02-.1,.02-.1,.07-.36,.02-.1,.06-.08c.2-.29,.5-.48,.84-.55h.04s.04,0,.04,0h.19s.06,0,.06,0h.06s2.67,.57,2.67,.57l.28-1.36c-.45-.02-.93-.06-1.42-.14l-.11-.02-.09-.07c-.29-.2-.48-.5-.55-.84l-.02-.1,.02-.1,.07-.36,.04-.18,.15-.11,.55-.4,.17-.12,.2,.04c.89,.16,1.79,.21,2.67,.15,.89-.06,1.77-.19,2.63-.41l.21-.05,.18,.12c.31,.21,.51,.5,.59,.86l.02,.1-.02,.1-.07,.36-.04,.17-.14,.11c-.57,.44-1.19,.73-1.88,.84l-.76,.08-.09,.25-.31,1.51,1.08,.23,.05-.04,.2,.04,1.82,.38,.1,.02,.08,.06c.29,.2,.48,.5,.55,.84l.02,.1-.02,.1-.07,.36-.02,.1-.06,.08c-.2,.29-.5,.48-.84,.55l-.09,.02h-.09s-3.2-.56-3.2-.56l-.29,1.22c-.12,.44-.09,.84,.09,1.22,.34,.27,.73,.49,1.16,.66,.33,.13,.68,.24,1.05,.32,.11-.54,.33-1.01,.67-1.41l.06-.08,.09-.05c.24-.12,.51-.15,.79-.09,.06,.01,.13,.03,.2,.05l.06,.02,.06,.04c.29,.2,.48,.5,.55,.84l.02,.1-.02,.1Zm1.56-7.22l-.07,.1-.11,.05c-.24,.12-.51,.15-.8,.09-.06-.01-.13-.03-.19-.05l-.07-.02-.06-.04c-.29-.2-.48-.5-.55-.84v-.07s0-.07,0-.07l.05-.46v-.03s.01-.03,.01-.03l.25-1.06-1.36-.35-4.21-.88-1.72-.28-.31,1.48-.02,.1-.06,.08c-.2,.29-.5,.48-.84,.55l-.1,.02-.1-.02-.36-.07-.1-.02-.08-.06c-.29-.2-.48-.5-.55-.84v-.04s0-.04,0-.04v-.19s0-.06,0-.06v-.06s.39-1.83,.39-1.83c.07-.53,.31-.98,.7-1.35l.05-.05,.06-.03c.24-.12,.51-.15,.79-.09,.06,.01,.13,.03,.19,.05l.16,.05,.02,.03,1.67,.35,1.41,.22c.07-.23,.12-.48,.15-.73,.07-.52,.26-.96,.57-1.33l.06-.07,.09-.04c.24-.12,.51-.15,.79-.09,.06,.01,.13,.03,.19,.05l.06,.02,.06,.04c.29,.2,.48,.5,.55,.84l.02,.09-.02,.09-.29,1.59c.64,.15,1.3,.3,1.96,.44,.91,.19,1.72,.54,2.4,1.04l.15,.11,.04,.18c.1,.43,.08,.87-.04,1.32-.11,.85-.4,1.6-.83,2.23Z"/>
        </g>
      </g>
      <path class="cls-1" d="M47.78,138.98C17.07,132.6-2.73,102.41,3.66,71.69S40.23,21.18,70.95,27.57c30.72,6.39,50.51,36.57,44.12,67.29-6.39,30.72-36.57,50.51-67.29,44.12ZM70.69,28.84C40.67,22.6,11.17,41.94,4.93,71.96c-6.24,30.02,13.1,59.52,43.12,65.76,30.02,6.24,59.52-13.1,65.76-43.12,6.24-30.02-13.1-59.52-43.12-65.76Z"/>
      <path class="cls-1" d="M48.57,135.18C19.95,129.23,1.51,101.1,7.46,72.48c5.95-28.62,34.08-47.06,62.7-41.11,28.62,5.95,47.06,34.08,41.11,62.7-5.95,28.62-34.08,47.06-62.7,41.11Zm21.32-102.55c-27.92-5.81-55.36,12.19-61.17,40.11-5.81,27.92,12.19,55.36,40.11,61.17,27.92,5.81,55.36-12.19,61.17-40.11,5.81-27.92-12.19-55.36-40.11-61.17Z"/>
    </g>
    <g>
      <path class="cls-1" d="M35.24,88.4c-.19,.9,.39,1.79,1.3,1.98l1.76,.37,.36-1.74c.19-.9-.39-1.79-1.3-1.98l-1.76-.37-.36,1.74Zm.76,.16l.21-.99,1.01,.21c.49,.1,.8,.58,.7,1.06l-.21,.99-1.01-.21c-.49-.1-.8-.58-.7-1.06Z"/>
      <path class="cls-1" d="M42.46,89.9c-.19,.9-1.07,1.48-1.98,1.3l-1.76-.37,.36-1.74c.19-.9,1.07-1.48,1.98-1.3l1.76,.37-.36,1.74Zm-.76-.16l.21-.99-1.01-.21c-.49-.1-.96,.21-1.06,.7l-.21,.99,1.01,.21c.49,.1,.96-.21,1.06-.7Z"/>
      <path class="cls-1" d="M34.47,92.11c.19-.9,1.07-1.48,1.98-1.3l1.76,.37-.36,1.74c-.19,.9-1.07,1.48-1.98,1.3l-1.76-.37,.36-1.74Zm.76,.16l-.21,.99,1.01,.21c.49,.1,.96-.21,1.06-.7l.21-.99-1.01-.21c-.49-.1-.96,.21-1.06,.7Z"/>
      <path class="cls-1" d="M41.69,93.61c.19-.9-.39-1.79-1.3-1.98l-1.76-.37-.36,1.74c-.19,.9,.39,1.79,1.3,1.98l1.76,.37,.36-1.74Zm-.76-.16l-.21,.99-1.01-.21c-.49-.1-.8-.58-.7-1.06l.21-.99,1.01,.21c.49,.1,.8,.58,.7,1.06Z"/>
    </g>
    <g>
      <path class="cls-1" d="M73.26,96.3c-.19,.9,.39,1.79,1.3,1.98l1.76,.37,.36-1.74c.19-.9-.39-1.79-1.3-1.98l-1.76-.37-.36,1.74Zm.76,.16l.21-.99,1.01,.21c.49,.1,.8,.58,.7,1.06l-.21,.99-1.01-.21c-.49-.1-.8-.58-.7-1.06Z"/>
      <path class="cls-1" d="M80.48,97.8c-.19,.9-1.07,1.48-1.98,1.3l-1.76-.37,.36-1.74c.19-.9,1.07-1.48,1.98-1.3l1.76,.37-.36,1.74Zm-.76-.16l.21-.99-1.01-.21c-.49-.1-.96,.21-1.06,.7l-.21,.99,1.01,.21c.49,.1,.96-.21,1.06-.7Z"/>
      <path class="cls-1" d="M72.49,100.01c.19-.9,1.07-1.48,1.98-1.3l1.76,.37-.36,1.74c-.19,.9-1.07,1.48-1.98,1.3l-1.76-.37,.36-1.74Zm.76,.16l-.21,.99,1.01,.21c.49,.1,.96-.21,1.06-.7l.21-.99-1.01-.21c-.49-.1-.96,.21-1.06,.7Z"/>
      <path class="cls-1" d="M79.7,101.51c.19-.9-.39-1.79-1.3-1.98l-1.76-.37-.36,1.74c-.19,.9,.39,1.79,1.3,1.98l1.76,.37,.36-1.74Zm-.76-.16l-.21,.99-1.01-.21c-.49-.1-.8-.58-.7-1.06l.21-.99,1.01,.21c.49,.1,.8,.58,.7,1.06Z"/>
    </g>
  </g>
</svg>