<?xml version="1.0" encoding="UTF-8"?>
<svg id="Calque_1" data-name="Calque 1" xmlns="http://www.w3.org/2000/svg" viewBox="0 0 43.21 37.4">
  <defs>
    <style>
      .cls-1 {
        fill: #fff;
      }
    </style>
  </defs>
  <path class="cls-1" d="M13.67,27.67c-.88-.29-1.72-.54-2.53-.85-1.91-.73-3.65-1.74-5.12-3.19-.37-.36-.61-.76-.48-1.29,.14-.54,.52-.82,1.05-.93,.35-.08,.69-.19,1.09-.3-.52-.32-.99-.59-1.44-.9-2.37-1.63-3.73-3.9-4.24-6.7-.16-.87,.62-1.6,1.49-1.39,.43,.1,.84,.24,1.27,.37-.21-.62-.45-1.2-.6-1.8-.6-2.33-.31-4.53,1.03-6.56,.66-1,1.69-.97,2.27,.07,1.05,1.86,2.33,3.54,3.93,4.95,2.65,2.34,5.73,3.75,9.24,4.19,.08,0,.15,.03,.23,.04,.08,.01,.16,.01,.25,.02,.03-.62,.05-1.23,.1-1.84,.36-3.9,3.02-7.69,7.22-8.56,1.84-.38,3.61-.18,5.32,.61,.26,.12,.46,.14,.73,0,1.52-.76,3.04-1.5,4.57-2.24,.85-.41,1.68-.06,1.83,.79,.05,.28-.04,.63-.17,.9-.52,1.11-1.08,2.2-1.62,3.3-.06,.11-.1,.23-.18,.4,.63-.05,1.19-.08,1.74-.15,.55-.07,1.03,.06,1.34,.53,.32,.48,.23,.96-.07,1.43-.54,.86-1.09,1.72-1.61,2.6-.1,.17-.15,.42-.12,.62,.86,5.66-.22,10.89-3.52,15.61-1.66,2.37-3.62,4.43-6.15,5.9-2.09,1.21-4.34,1.98-6.71,2.39-4.2,.73-8.38,.55-12.54-.35-2.26-.49-4.48-1.12-6.52-2.25-.51-.28-.98-.65-1.44-1.01-.45-.36-.6-.85-.41-1.4,.18-.51,.63-.78,1.28-.78,.9,0,1.81,.03,2.71,0,1.99-.08,3.92-.45,5.66-1.48,.11-.07,.23-.13,.34-.2,.26-.18,.51-.36,.79-.56Zm-4.93,4.53c2.52,.84,5.02,1.29,7.57,1.48,2.15,.16,4.28,.09,6.42-.22,2.22-.33,4.34-.95,6.29-2.05,3.23-1.81,5.46-4.55,7.12-7.78,1.84-3.58,2.29-7.4,1.65-11.36-.14-.88-.1-1.68,.49-2.4,.14-.17,.24-.38,.39-.63-.38,.03-.68,.05-.98,.07-.3,.02-.6,.05-.9,.04-.66-.02-1.16-.53-1.13-1.2,.01-.24,.1-.48,.21-.7,.36-.77,.75-1.53,1.18-2.41-.79,.38-1.48,.69-2.13,1.05-.62,.34-1.16,.29-1.77-.05-1.84-1.04-3.76-1.12-5.63-.17-2.71,1.37-3.86,3.74-3.96,6.68-.02,.67,.12,1.35,.16,2.03,.06,.82-.49,1.42-1.31,1.34-1.29-.12-2.59-.21-3.84-.49-4.55-1.02-8.28-3.39-11.19-7.03-.31-.38-.6-.78-.92-1.19-.04,.09-.07,.13-.08,.18-.24,1.27-.13,2.52,.43,3.67,.33,.68,.81,1.31,1.26,1.92,.57,.78,.28,1.75-.64,1.98-.26,.07-.54,.1-.81,.11-.55,.02-1.11,0-1.68,0,.43,1.04,1.11,1.9,1.96,2.63,1.15,.99,2.49,1.61,3.95,2.01,.54,.15,.95,.45,1.03,1.05,.08,.61-.22,1.02-.74,1.3-.65,.35-1.29,.71-1.95,1.08,1.05,.73,2.17,1.29,3.37,1.64,1.27,.37,2.58,.63,3.87,.94,1,.24,1.35,1.26,.66,2.02-1.73,1.9-3.77,3.34-6.3,3.98-.65,.17-1.31,.3-2.07,.47Z"/>
  <path class="cls-1" d="M39.75,1.23c.56,0,1.02,.35,1.12,.96,.05,.28-.04,.63-.17,.9-.52,1.11-1.08,2.2-1.62,3.3-.06,.11-.1,.23-.18,.4,.63-.05,1.19-.08,1.74-.15,.09-.01,.18-.02,.27-.02,.44,0,.81,.15,1.07,.55,.32,.48,.23,.96-.07,1.43-.54,.86-1.09,1.72-1.61,2.6-.1,.17-.15,.42-.12,.62,.86,5.66-.22,10.89-3.52,15.61-1.66,2.37-3.62,4.43-6.15,5.9-2.09,1.21-4.34,1.98-6.71,2.39-1.76,.31-3.52,.45-5.27,.45-2.43,0-4.86-.28-7.27-.81-2.26-.49-4.48-1.12-6.52-2.25-.51-.28-.98-.65-1.44-1.01-.46-.36-.6-.85-.41-1.4,.18-.51,.63-.78,1.28-.78,.05,0,.1,0,.15,0,.51,0,1.01,0,1.52,0,.35,0,.69,0,1.04-.02,1.99-.08,3.92-.45,5.66-1.48,.11-.07,.23-.13,.34-.2,.26-.18,.51-.36,.79-.56-.88-.29-1.72-.54-2.53-.85-1.91-.73-3.65-1.74-5.12-3.19-.37-.36-.61-.76-.48-1.29,.14-.54,.52-.82,1.05-.93,.35-.08,.69-.19,1.09-.3-.52-.32-.99-.59-1.44-.9-2.37-1.63-3.73-3.9-4.24-6.7-.14-.77,.44-1.42,1.18-1.42,.1,0,.2,.01,.31,.04,.43,.1,.84,.24,1.27,.37-.21-.62-.45-1.2-.6-1.8-.6-2.33-.31-4.53,1.03-6.56,.32-.49,.73-.73,1.13-.73s.84,.27,1.14,.8c1.05,1.86,2.33,3.54,3.93,4.95,2.65,2.34,5.73,3.75,9.24,4.19,.08,0,.15,.03,.23,.04,.08,.01,.16,.01,.25,.02,.03-.62,.05-1.23,.1-1.84,.36-3.9,3.02-7.69,7.22-8.56,.6-.12,1.19-.19,1.78-.19,1.21,0,2.39,.27,3.54,.8,.14,.06,.25,.1,.37,.1,.11,0,.22-.03,.35-.09,1.52-.76,3.04-1.5,4.57-2.24,.24-.12,.48-.17,.71-.17m-5.65,5.1c-.31,0-.62-.1-.94-.28-.98-.55-1.98-.83-2.99-.83-.89,0-1.77,.22-2.65,.66-2.71,1.37-3.86,3.74-3.96,6.68-.02,.67,.12,1.35,.16,2.03,.06,.77-.43,1.35-1.17,1.35-.05,0-.09,0-.14,0-1.29-.12-2.59-.21-3.84-.49-4.55-1.02-8.28-3.39-11.19-7.03-.31-.38-.6-.78-.92-1.19-.04,.09-.07,.13-.08,.18-.24,1.27-.13,2.52,.43,3.67,.33,.68,.81,1.31,1.26,1.92,.57,.78,.28,1.75-.64,1.98-.26,.07-.54,.1-.81,.11-.23,0-.46,0-.69,0-.32,0-.65,0-.99,0,.43,1.04,1.11,1.9,1.96,2.63,1.15,.99,2.49,1.61,3.95,2.01,.54,.15,.95,.45,1.03,1.05,.08,.61-.22,1.02-.74,1.3-.65,.35-1.29,.71-1.95,1.08,1.05,.73,2.17,1.29,3.37,1.64,1.27,.37,2.58,.63,3.87,.94,1,.24,1.35,1.26,.66,2.02-1.73,1.9-3.77,3.34-6.3,3.98-.65,.17-1.31,.3-2.07,.47,2.52,.84,5.02,1.29,7.57,1.48,.75,.05,1.49,.08,2.24,.08,1.4,0,2.79-.1,4.18-.31,2.22-.33,4.33-.95,6.29-2.05,3.23-1.81,5.46-4.55,7.12-7.78,1.84-3.58,2.29-7.4,1.65-11.36-.14-.88-.1-1.68,.49-2.4,.14-.17,.24-.38,.39-.63-.38,.03-.68,.05-.98,.07-.27,.02-.54,.05-.81,.05-.03,0-.06,0-.09,0-.66-.02-1.16-.53-1.13-1.2,.01-.24,.1-.48,.21-.7,.36-.77,.75-1.53,1.18-2.41-.79,.38-1.48,.69-2.13,1.05-.29,.16-.56,.23-.82,.23M39.75,.98c-.27,0-.54,.07-.81,.2-1.84,.89-3.25,1.58-4.57,2.24-.09,.05-.17,.07-.24,.07s-.16-.02-.27-.07c-1.17-.54-2.4-.82-3.64-.82-.6,0-1.22,.06-1.83,.19-3.96,.82-7.01,4.43-7.42,8.78-.04,.42-.06,.84-.08,1.26,0,.11,0,.22-.01,.33-.03,0-.05,0-.08-.01-.04,0-.09-.02-.13-.02-3.43-.44-6.5-1.83-9.1-4.13-1.51-1.33-2.78-2.93-3.88-4.89-.33-.59-.82-.93-1.35-.93s-.98,.3-1.34,.84c-1.34,2.03-1.7,4.3-1.07,6.76,.11,.42,.25,.81,.4,1.23,.01,.04,.03,.08,.04,.12-.27-.08-.54-.17-.82-.23-.12-.03-.25-.04-.37-.04-.44,0-.85,.19-1.12,.52-.27,.33-.39,.77-.31,1.2,.54,2.94,2.01,5.25,4.35,6.86,.31,.21,.63,.41,.97,.61,0,0,0,0,0,0-.18,.05-.35,.1-.53,.14-.67,.15-1.09,.52-1.24,1.11-.18,.71,.22,1.21,.54,1.53,1.39,1.38,3.09,2.45,5.2,3.25,.56,.21,1.13,.39,1.72,.58,.12,.04,.23,.07,.35,.11-.13,.09-.26,.18-.38,.27-.07,.05-.15,.09-.22,.14l-.1,.06c-1.52,.9-3.28,1.35-5.55,1.44-.34,.01-.69,.02-1.03,.02-.25,0-.51,0-.76,0-.25,0-.51,0-.76,0h-.15c-.76,0-1.3,.34-1.51,.95-.23,.66-.05,1.25,.49,1.68,.41,.33,.93,.73,1.47,1.03,2.22,1.23,4.58,1.84,6.59,2.28,2.48,.54,4.94,.81,7.32,.81,1.79,0,3.57-.15,5.31-.46,2.48-.43,4.77-1.25,6.8-2.42,2.32-1.34,4.36-3.3,6.23-5.97,3.25-4.64,4.44-9.95,3.56-15.79-.02-.14,.02-.33,.09-.45,.5-.84,1.03-1.68,1.54-2.49l.06-.1c.39-.62,.41-1.19,.07-1.71-.29-.44-.72-.66-1.28-.66-.1,0-.2,0-.3,.02-.38,.05-.76,.07-1.16,.1-.05,0-.1,0-.15,.01,0,0,0,0,0,0l.46-.93c.39-.79,.79-1.58,1.16-2.38,.08-.17,.26-.62,.19-1.04-.12-.71-.66-1.17-1.37-1.17h0Zm-17.18,15.2c.41,0,.77-.15,1.03-.43,.28-.3,.42-.72,.38-1.18-.02-.25-.05-.49-.08-.74-.05-.44-.1-.85-.09-1.26,.11-3.06,1.39-5.24,3.82-6.47,.83-.42,1.68-.63,2.53-.63,.96,0,1.92,.27,2.86,.8,.38,.21,.73,.32,1.07,.32,.31,0,.62-.09,.94-.26,.44-.25,.91-.47,1.4-.7,.02,0,.04-.02,.06-.03l-.03,.07c-.29,.59-.57,1.14-.83,1.69-.14,.3-.22,.56-.23,.8-.02,.38,.11,.74,.36,1.01,.26,.28,.62,.44,1.01,.45h.09c.2,0,.41-.01,.61-.03l.22-.02c.17-.01,.33-.02,.51-.04-.04,.07-.08,.13-.13,.19-.72,.86-.67,1.84-.55,2.6,.65,4.06,.1,7.83-1.63,11.2-1.82,3.54-4.12,6.05-7.02,7.68-1.79,1-3.83,1.66-6.21,2.02-1.35,.2-2.75,.3-4.14,.3-.73,0-1.48-.03-2.22-.08-2.36-.17-4.54-.56-6.62-1.18,.4-.09,.78-.17,1.16-.27,2.39-.61,4.49-1.93,6.42-4.06,.38-.42,.51-.94,.36-1.42-.15-.5-.58-.87-1.15-1.01-.42-.1-.84-.2-1.26-.29-.86-.19-1.75-.39-2.6-.64-1.01-.3-2.01-.76-2.96-1.38l.23-.13c.46-.25,.91-.5,1.37-.75,.66-.36,.95-.88,.87-1.55-.08-.64-.49-1.06-1.21-1.26-1.56-.43-2.82-1.07-3.85-1.96-.76-.65-1.34-1.39-1.74-2.19h.11s.49,0,.49,0c.23,0,.47,0,.7,0,.3,0,.59-.05,.87-.12,.5-.13,.88-.46,1.04-.9,.17-.48,.08-1.01-.26-1.47l-.13-.17c-.4-.55-.81-1.11-1.11-1.71-.47-.96-.63-2.03-.47-3.18,.2,.27,.4,.53,.61,.79,2.96,3.71,6.78,6.1,11.33,7.12,1.06,.24,2.17,.34,3.24,.44l.63,.06c.06,0,.11,0,.16,0h0Z"/>
</svg>